  0
SECTION
  2
HEADER
  9
$ACADVER
  1
AC1027
  9
$ACADMAINTVER
 70
105
  9
$DWGCODEPAGE
  3
ANSI_1252
  9
$LASTSAVEDBY
  1
ezdxf
  9
$REQUIREDVERSIONS
160
0
  9
$INSBASE
 10
0.0
 20
0.0
 30
0.0
  9
$EXTMIN
 10
1e+20
 20
1e+20
 30
1e+20
  9
$EXTMAX
 10
-1e+20
 20
-1e+20
 30
-1e+20
  9
$LIMMIN
 10
0.0
 20
0.0
  9
$LIMMAX
 10
420.0
 20
297.0
  9
$ORTHOMODE
 70
0
  9
$REGENMODE
 70
1
  9
$FILLMODE
 70
1
  9
$QTEXTMODE
 70
0
  9
$MIRRTEXT
 70
1
  9
$LTSCALE
 40
1.0
  9
$ATTMODE
 70
1
  9
$TEXTSIZE
 40
2.5
  9
$TRACEWID
 40
1.0
  9
$TEXTSTYLE
  7
Standard
  9
$CLAYER
  8
0
  9
$CELTYPE
  6
ByLayer
  9
$CECOLOR
 62
256
  9
$CELTSCALE
 40
1.0
  9
$DISPSILH
 70
0
  9
$DIMSCALE
 40
1.0
  9
$DIMASZ
 40
2.5
  9
$DIMEXO
 40
0.625
  9
$DIMDLI
 40
3.75
  9
$DIMRND
 40
0.0
  9
$DIMDLE
 40
0.0
  9
$DIMEXE
 40
1.25
  9
$DIMTP
 40
0.0
  9
$DIMTM
 40
0.0
  9
$DIMTXT
 40
2.5
  9
$DIMCEN
 40
2.5
  9
$DIMTSZ
 40
0.0
  9
$DIMTOL
 70
0
  9
$DIMLIM
 70
0
  9
$DIMTIH
 70
0
  9
$DIMTOH
 70
0
  9
$DIMSE1
 70
0
  9
$DIMSE2
 70
0
  9
$DIMTAD
 70
1
  9
$DIMZIN
 70
8
  9
$DIMBLK
  1

  9
$DIMASO
 70
1
  9
$DIMSHO
 70
1
  9
$DIMPOST
  1

  9
$DIMAPOST
  1

  9
$DIMALT
 70
0
  9
$DIMALTD
 70
3
  9
$DIMALTF
 40
0.03937007874
  9
$DIMLFAC
 40
1.0
  9
$DIMTOFL
 70
1
  9
$DIMTVP
 40
0.0
  9
$DIMTIX
 70
0
  9
$DIMSOXD
 70
0
  9
$DIMSAH
 70
0
  9
$DIMBLK1
  1

  9
$DIMBLK2
  1

  9
$DIMSTYLE
  2
ISO-25
  9
$DIMCLRD
 70
0
  9
$DIMCLRE
 70
0
  9
$DIMCLRT
 70
0
  9
$DIMTFAC
 40
1.0
  9
$DIMGAP
 40
0.625
  9
$DIMJUST
 70
0
  9
$DIMSD1
 70
0
  9
$DIMSD2
 70
0
  9
$DIMTOLJ
 70
0
  9
$DIMTZIN
 70
8
  9
$DIMALTZ
 70
0
  9
$DIMALTTZ
 70
0
  9
$DIMUPT
 70
0
  9
$DIMDEC
 70
2
  9
$DIMTDEC
 70
2
  9
$DIMALTU
 70
2
  9
$DIMALTTD
 70
3
  9
$DIMTXSTY
  7
Standard
  9
$DIMAUNIT
 70
0
  9
$DIMADEC
 70
0
  9
$DIMALTRND
 40
0.0
  9
$DIMAZIN
 70
0
  9
$DIMDSEP
 70
44
  9
$DIMATFIT
 70
3
  9
$DIMFRAC
 70
0
  9
$DIMLDRBLK
  1

  9
$DIMLUNIT
 70
2
  9
$DIMLWD
 70
-2
  9
$DIMLWE
 70
-2
  9
$DIMTMOVE
 70
0
  9
$DIMFXL
 40
1.0
  9
$DIMFXLON
 70
0
  9
$DIMJOGANG
 40
0.785398163397
  9
$DIMTFILL
 70
0
  9
$DIMTFILLCLR
 70
0
  9
$DIMARCSYM
 70
0
  9
$DIMLTYPE
  6

  9
$DIMLTEX1
  6

  9
$DIMLTEX2
  6

  9
$DIMTXTDIRECTION
 70
0
  9
$LUNITS
 70
2
  9
$LUPREC
 70
4
  9
$SKETCHINC
 40
1.0
  9
$FILLETRAD
 40
10.0
  9
$AUNITS
 70
0
  9
$AUPREC
 70
2
  9
$MENU
  1
.
  9
$ELEVATION
 40
0.0
  9
$PELEVATION
 40
0.0
  9
$THICKNESS
 40
0.0
  9
$LIMCHECK
 70
0
  9
$CHAMFERA
 40
0.0
  9
$CHAMFERB
 40
0.0
  9
$CHAMFERC
 40
0.0
  9
$CHAMFERD
 40
0.0
  9
$SKPOLY
 70
0
  9
$TDCREATE
 40
2460133.4509722223
  9
$TDUCREATE
 40
2458532.153996898
  9
$TDUPDATE
 40
2460133.4509722223
  9
$TDUUPDATE
 40
2458532.1544311
  9
$TDINDWG
 40
0.0
  9
$TDUSRTIMER
 40
0.0
  9
$USRTIMER
 70
1
  9
$ANGBASE
 50
0.0
  9
$ANGDIR
 70
0
  9
$PDMODE
 70
0
  9
$PDSIZE
 40
0.0
  9
$PLINEWID
 40
0.0
  9
$SPLFRAME
 70
0
  9
$SPLINETYPE
 70
6
  9
$SPLINESEGS
 70
8
  9
$HANDSEED
  5
1C5
  9
$SURFTAB1
 70
6
  9
$SURFTAB2
 70
6
  9
$SURFTYPE
 70
6
  9
$SURFU
 70
6
  9
$SURFV
 70
6
  9
$UCSBASE
  2

  9
$UCSNAME
  2

  9
$UCSORG
 10
0.0
 20
0.0
 30
0.0
  9
$UCSXDIR
 10
1.0
 20
0.0
 30
0.0
  9
$UCSYDIR
 10
0.0
 20
1.0
 30
0.0
  9
$UCSORTHOREF
  2

  9
$UCSORTHOVIEW
 70
0
  9
$UCSORGTOP
 10
0.0
 20
0.0
 30
0.0
  9
$UCSORGBOTTOM
 10
0.0
 20
0.0
 30
0.0
  9
$UCSORGLEFT
 10
0.0
 20
0.0
 30
0.0
  9
$UCSORGRIGHT
 10
0.0
 20
0.0
 30
0.0
  9
$UCSORGFRONT
 10
0.0
 20
0.0
 30
0.0
  9
$UCSORGBACK
 10
0.0
 20
0.0
 30
0.0
  9
$PUCSBASE
  2

  9
$PUCSNAME
  2

  9
$PUCSORG
 10
0.0
 20
0.0
 30
0.0
  9
$PUCSXDIR
 10
1.0
 20
0.0
 30
0.0
  9
$PUCSYDIR
 10
0.0
 20
1.0
 30
0.0
  9
$PUCSORTHOREF
  2

  9
$PUCSORTHOVIEW
 70
0
  9
$PUCSORGTOP
 10
0.0
 20
0.0
 30
0.0
  9
$PUCSORGBOTTOM
 10
0.0
 20
0.0
 30
0.0
  9
$PUCSORGLEFT
 10
0.0
 20
0.0
 30
0.0
  9
$PUCSORGRIGHT
 10
0.0
 20
0.0
 30
0.0
  9
$PUCSORGFRONT
 10
0.0
 20
0.0
 30
0.0
  9
$PUCSORGBACK
 10
0.0
 20
0.0
 30
0.0
  9
$USERI1
 70
0
  9
$USERI2
 70
0
  9
$USERI3
 70
0
  9
$USERI4
 70
0
  9
$USERI5
 70
0
  9
$USERR1
 40
0.0
  9
$USERR2
 40
0.0
  9
$USERR3
 40
0.0
  9
$USERR4
 40
0.0
  9
$USERR5
 40
0.0
  9
$WORLDVIEW
 70
1
  9
$SHADEDGE
 70
3
  9
$SHADEDIF
 70
70
  9
$TILEMODE
 70
1
  9
$MAXACTVP
 70
64
  9
$PINSBASE
 10
0.0
 20
0.0
 30
0.0
  9
$PLIMCHECK
 70
0
  9
$PEXTMIN
 10
1e+20
 20
1e+20
 30
1e+20
  9
$PEXTMAX
 10
-1e+20
 20
-1e+20
 30
-1e+20
  9
$PLIMMIN
 10
0.0
 20
0.0
  9
$PLIMMAX
 10
420.0
 20
297.0
  9
$UNITMODE
 70
0
  9
$VISRETAIN
 70
1
  9
$PLINEGEN
 70
0
  9
$PSLTSCALE
 70
1
  9
$TREEDEPTH
 70
3020
  9
$CMLSTYLE
  2
Standard
  9
$CMLJUST
 70
0
  9
$CMLSCALE
 40
20.0
  9
$PROXYGRAPHICS
 70
1
  9
$MEASUREMENT
 70
1
  9
$CELWEIGHT
370
-1
  9
$ENDCAPS
280
0
  9
$JOINSTYLE
280
0
  9
$LWDISPLAY
290
0
  9
$INSUNITS
 70
4
  9
$HYPERLINKBASE
  1

  9
$STYLESHEET
  1

  9
$XEDIT
290
1
  9
$CEPSNTYPE
380
0
  9
$PSTYLEMODE
290
1
  9
$FINGERPRINTGUID
  2
{A8060481-0D39-4544-AF1C-7ED64AF44E81}
  9
$VERSIONGUID
  2
{50EE8FB0-0ABA-448C-B3FB-0C2C2002FB04}
  9
$EXTNAMES
290
1
  9
$PSVPSCALE
 40
0.0
  9
$OLESTARTUP
290
0
  9
$SORTENTS
280
127
  9
$INDEXCTL
280
0
  9
$HIDETEXT
280
1
  9
$XCLIPFRAME
280
0
  9
$HALOGAP
280
0
  9
$OBSCOLOR
 70
257
  9
$OBSLTYPE
280
0
  9
$INTERSECTIONDISPLAY
280
0
  9
$INTERSECTIONCOLOR
 70
257
  9
$DIMASSOC
280
2
  9
$PROJECTNAME
  1

  9
$CAMERADISPLAY
290
0
  9
$LENSLENGTH
 40
50.0
  9
$CAMERAHEIGHT
 40
0.0
  9
$STEPSPERSEC
 40
24.0
  9
$STEPSIZE
 40
100.0
  9
$3DDWFPREC
 40
2.0
  9
$PSOLWIDTH
 40
0.005
  9
$PSOLHEIGHT
 40
0.08
  9
$LOFTANG1
 40
1.570796326795
  9
$LOFTANG2
 40
1.570796326795
  9
$LOFTMAG1
 40
0.0
  9
$LOFTMAG2
 40
0.0
  9
$LOFTPARAM
 70
7
  9
$LOFTNORMALS
280
1
  9
$LATITUDE
 40
37.795
  9
$LONGITUDE
 40
-122.394
  9
$NORTHDIRECTION
 40
0.0
  9
$TIMEZONE
 70
-8000
  9
$LIGHTGLYPHDISPLAY
280
1
  9
$TILEMODELIGHTSYNCH
280
1
  9
$CMATERIAL
347
20
  9
$SOLIDHIST
280
0
  9
$SHOWHIST
280
1
  9
$DWFFRAME
280
2
  9
$DGNFRAME
280
2
  9
$REALWORLDSCALE
290
1
  9
$INTERFERECOLOR
 62
256
  9
$CSHADOW
280
0
  9
$SHADOWPLANELOCATION
 40
0.0
  0
ENDSEC
  0
SECTION
  2
CLASSES
  0
CLASS
  1
ACDBDICTIONARYWDFLT
  2
AcDbDictionaryWithDefault
  3
ObjectDBX Classes
 90
0
 91
0
280
0
281
0
  0
CLASS
  1
SUN
  2
AcDbSun
  3
SCENEOE
 90
1153
 91
0
280
0
281
0
  0
CLASS
  1
VISUALSTYLE
  2
AcDbVisualStyle
  3
ObjectDBX Classes
 90
4095
 91
0
280
0
281
0
  0
CLASS
  1
MATERIAL
  2
AcDbMaterial
  3
ObjectDBX Classes
 90
1153
 91
0
280
0
281
0
  0
CLASS
  1
SCALE
  2
AcDbScale
  3
ObjectDBX Classes
 90
1153
 91
0
280
0
281
0
  0
CLASS
  1
TABLESTYLE
  2
AcDbTableStyle
  3
ObjectDBX Classes
 90
4095
 91
0
280
0
281
0
  0
CLASS
  1
MLEADERSTYLE
  2
AcDbMLeaderStyle
  3
ACDB_MLEADERSTYLE_CLASS
 90
4095
 91
0
280
0
281
0
  0
CLASS
  1
DICTIONARYVAR
  2
AcDbDictionaryVar
  3
ObjectDBX Classes
 90
0
 91
0
280
0
281
0
  0
CLASS
  1
CELLSTYLEMAP
  2
AcDbCellStyleMap
  3
ObjectDBX Classes
 90
1152
 91
0
280
0
281
0
  0
CLASS
  1
MENTALRAYRENDERSETTINGS
  2
AcDbMentalRayRenderSettings
  3
SCENEOE
 90
1024
 91
0
280
0
281
0
  0
CLASS
  1
ACDBDETAILVIEWSTYLE
  2
AcDbDetailViewStyle
  3
ObjectDBX Classes
 90
1025
 91
0
280
0
281
0
  0
CLASS
  1
ACDBSECTIONVIEWSTYLE
  2
AcDbSectionViewStyle
  3
ObjectDBX Classes
 90
1025
 91
0
280
0
281
0
  0
CLASS
  1
RASTERVARIABLES
  2
AcDbRasterVariables
  3
ISM
 90
0
 91
0
280
0
281
0
  0
CLASS
  1
ACDBPLACEHOLDER
  2
AcDbPlaceHolder
  3
ObjectDBX Classes
 90
0
 91
0
280
0
281
0
  0
CLASS
  1
LAYOUT
  2
AcDbLayout
  3
ObjectDBX Classes
 90
0
 91
0
280
0
281
0
  0
ENDSEC
  0
SECTION
  2
TABLES
  0
TABLE
  2
VPORT
  5
8
330
0
100
AcDbSymbolTable
 70
1
  0
VPORT
  5
1C1
330
8
100
AcDbSymbolTableRecord
100
AcDbViewportTableRecord
  2
*Active
 70
0
 10
0.0
 20
0.0
 11
1.0
 21
1.0
 12
-16.98634168994174
 22
-17.373130344229125
 13
0.0
 23
0.0
 14
0.5
 24
0.5
 15
0.5
 25
0.5
 16
0.0
 26
0.0
 36
1.0
 17
0.0
 27
0.0
 37
0.0
 40
181.7088397148318
 41
1.34
 42
50.0
 43
0.0
 44
0.0
 50
0.0
 51
0.0
 71
0
 72
1000
 73
1
 74
3
 75
0
 76
0
 77
0
 78
0
281
0
 65
1
110
0.0
120
0.0
130
0.0
111
1.0
121
0.0
131
0.0
112
0.0
122
1.0
132
0.0
 79
0
146
0.0
  0
ENDTAB
  0
TABLE
  2
LTYPE
  5
2
330
0
100
AcDbSymbolTable
 70
3
  0
LTYPE
  5
24
330
2
100
AcDbSymbolTableRecord
100
AcDbLinetypeTableRecord
  2
ByBlock
 70
0
  3

 72
65
 73
0
 40
0.0
  0
LTYPE
  5
25
330
2
100
AcDbSymbolTableRecord
100
AcDbLinetypeTableRecord
  2
ByLayer
 70
0
  3

 72
65
 73
0
 40
0.0
  0
LTYPE
  5
26
330
2
100
AcDbSymbolTableRecord
100
AcDbLinetypeTableRecord
  2
Continuous
 70
0
  3

 72
65
 73
0
 40
0.0
  0
ENDTAB
  0
TABLE
  2
LAYER
  5
1
330
0
100
AcDbSymbolTable
 70
2
  0
LAYER
  5
27
330
1
100
AcDbSymbolTableRecord
100
AcDbLayerTableRecord
  2
0
 70
0
 62
7
  6
Continuous
370
-3
390
13
347
21
  0
LAYER
  5
28
330
1
100
AcDbSymbolTableRecord
100
AcDbLayerTableRecord
  2
Defpoints
 70
0
 62
7
  6
Continuous
290
0
370
-3
390
13
347
21
  0
ENDTAB
  0
TABLE
  2
STYLE
  5
5
330
0
100
AcDbSymbolTable
 70
1
  0
STYLE
  5
29
330
5
100
AcDbSymbolTableRecord
100
AcDbTextStyleTableRecord
  2
Standard
 70
0
 40
0.0
 41
1.0
 50
0.0
 71
0
 42
2.5
  3
txt
  4

  0
ENDTAB
  0
TABLE
  2
VIEW
  5
7
330
0
100
AcDbSymbolTable
 70
0
  0
ENDTAB
  0
TABLE
  2
UCS
  5
6
330
0
100
AcDbSymbolTable
 70
0
  0
ENDTAB
  0
TABLE
  2
APPID
  5
3
330
0
100
AcDbSymbolTable
 70
3
  0
APPID
  5
2A
330
3
100
AcDbSymbolTableRecord
100
AcDbRegAppTableRecord
  2
ACAD
 70
0
  0
APPID
  5
1C2
330
3
100
AcDbSymbolTableRecord
100
AcDbRegAppTableRecord
  2
HATCHBACKGROUNDCOLOR
 70
0
  0
APPID
  5
1C3
330
3
100
AcDbSymbolTableRecord
100
AcDbRegAppTableRecord
  2
EZDXF
 70
0
  0
ENDTAB
  0
TABLE
  2
DIMSTYLE
  5
4
330
0
100
AcDbSymbolTable
 70
1
100
AcDbDimStyleTable
  0
DIMSTYLE
105
2B
330
4
100
AcDbSymbolTableRecord
100
AcDbDimStyleTableRecord
  2
Standard
 70
0
 40
1.0
 41
2.5
 42
0.625
 43
3.75
 44
1.25
 45
0.0
 46
0.0
 47
0.0
 48
0.0
 49
2.5
140
2.5
141
2.5
142
0.0
143
0.03937007874
144
1.0
145
0.0
146
1.0
147
0.625
148
0.0
 69
0
 70
0
 71
0
 72
0
 73
0
 74
0
 75
0
 76
0
 77
1
 78
8
 79
3
170
0
171
3
172
1
173
0
174
0
175
0
176
0
177
0
178
0
179
2
271
2
272
2
273
2
274
3
275
0
276
0
277
2
278
44
279
0
280
0
281
0
282
0
283
0
284
8
285
0
286
0
288
0
289
3
290
0
371
-2
372
-2
  0
ENDTAB
  0
TABLE
  2
BLOCK_RECORD
  5
9
330
0
100
AcDbSymbolTable
 70
2
  0
BLOCK_RECORD
  5
17
330
9
100
AcDbSymbolTableRecord
100
AcDbBlockTableRecord
  2
*Model_Space
340
1A
 70
0
280
1
281
0
  0
BLOCK_RECORD
  5
1B
330
9
100
AcDbSymbolTableRecord
100
AcDbBlockTableRecord
  2
*Paper_Space
340
1E
 70
0
280
1
281
0
  0
ENDTAB
  0
ENDSEC
  0
SECTION
  2
BLOCKS
  0
BLOCK
  5
18
330
17
100
AcDbEntity
  8
0
100
AcDbBlockBegin
  2
*Model_Space
 70
0
 10
0.0
 20
0.0
 30
0.0
  3
*Model_Space
  1

  0
ENDBLK
  5
19
330
17
100
AcDbEntity
  8
0
100
AcDbBlockEnd
  0
BLOCK
  5
1C
330
1B
100
AcDbEntity
  8
0
100
AcDbBlockBegin
  2
*Paper_Space
 70
0
 10
0.0
 20
0.0
 30
0.0
  3
*Paper_Space
  1

  0
ENDBLK
  5
1D
330
1B
100
AcDbEntity
  8
0
100
AcDbBlockEnd
  0
ENDSEC
  0
SECTION
  2
ENTITIES
  0
LINE
  5
2F
330
17
100
AcDbEntity
  8
0
100
AcDbLine
 10
-48.92028263219573
 20
-107.06943444930045
 30
-5.0
 11
-42.49220183757449
 21
-100.61354588354081
 31
-5.0
  0
LINE
  5
30
330
17
100
AcDbEntity
  8
0
100
AcDbLine
 10
-42.49220183757469
 20
-100.61354588354067
 30
-5.0
 11
-37.96768017408881
 21
-94.38607606713896
 31
-5.0
  0
LINE
  5
31
330
17
100
AcDbEntity
  8
0
100
AcDbLine
 10
-37.9676801740888
 20
-94.38607606713896
 30
-5.0
 11
-39.80931908726454
 21
-90.21550328194746
 31
-5.0
  0
LINE
  5
32
330
17
100
AcDbEntity
  8
0
100
AcDbLine
 10
-39.809319087265244
 20
-90.21550328194684
 30
-5.0
 11
-29.602205876692764
 21
-78.87935561000808
 31
-5.0
  0
LINE
  5
33
330
17
100
AcDbEntity
  8
0
100
AcDbLine
 10
-29.60220587669277
 20
-78.87935561000808
 30
-5.000000000000001
 11
-22.66740806703621
 21
-67.17312904720154
 31
-5.000000000000001
  0
LINE
  5
34
330
17
100
AcDbEntity
  8
0
100
AcDbLine
 10
-22.66740806703622
 20
-67.17312904720156
 30
-5.000000000000001
 11
-7.129754948186422
 21
-70.66128951318679
 31
-5.000000000000001
  0
LINE
  5
35
330
17
100
AcDbEntity
  8
0
100
AcDbLine
 10
15.612177624028327
 20
-70.66128951318679
 30
-5.0
 11
-7.1297549481864255
 21
-70.66128951318679
 31
-5.0
  0
LINE
  5
36
330
17
100
AcDbEntity
  8
0
100
AcDbLine
 10
15.612177624028334
 20
-70.66128951318679
 30
-5.0
 11
16.530466804793136
 21
-68.11129146655179
 31
-5.0
  0
LINE
  5
37
330
17
100
AcDbEntity
  8
0
100
AcDbLine
 10
16.530466804793136
 20
-68.11129146655179
 30
-5.0
 11
18.54526563233129
 21
-59.80032446355677
 31
-5.0
  0
LINE
  5
38
330
17
100
AcDbEntity
  8
0
100
AcDbLine
 10
18.54526563233128
 20
-59.80032446355678
 30
-5.0
 11
54.80267069061334
 21
-59.80032446355678
 31
-5.0
  0
LINE
  5
39
330
17
100
AcDbEntity
  8
0
100
AcDbLine
 10
54.80267069061333
 20
-59.80032446355677
 30
-5.0
 11
64.20204084410304
 21
-49.65810268657217
 31
-5.0
  0
LINE
  5
3A
330
17
100
AcDbEntity
  8
0
100
AcDbLine
 10
64.20204084410304
 20
-49.65810268657218
 30
-5.0
 11
64.37396336759808
 21
-48.338126645897006
 31
-5.0
  0
LINE
  5
3B
330
17
100
AcDbEntity
  8
0
100
AcDbLine
 10
64.2077628039224
 20
-30.5650903890859
 30
-5.0
 11
64.37396336759808
 21
-48.338126645897006
 31
-5.0
  0
LINE
  5
3C
330
17
100
AcDbEntity
  8
0
100
AcDbLine
 10
64.2077628039224
 20
-30.565090389085903
 30
-5.0
 11
64.16909884560498
 21
-22.15
 31
-5.0
  0
LINE
  5
3D
330
17
100
AcDbEntity
  8
0
100
AcDbLine
 10
64.16909884560498
 20
-22.15
 30
-5.0
 11
64.16909884560498
 21
-3.8500000000000014
 31
-5.0
  0
LINE
  5
3E
330
17
100
AcDbEntity
  8
0
100
AcDbLine
 10
64.16909884560496
 20
-3.8500000000000005
 30
-5.0
 11
64.20776280392239
 21
4.565090389085897
 31
-5.0
  0
LINE
  5
3F
330
17
100
AcDbEntity
  8
0
100
AcDbLine
 10
64.20776280392397
 20
4.565090389085865
 30
-5.0
 11
64.37306010366507
 21
22.241534057544783
 31
-5.0
  0
LINE
  5
40
330
17
100
AcDbEntity
  8
0
100
AcDbLine
 10
64.48641709817895
 20
30.083150906455202
 30
-5.0
 11
64.37306010366507
 21
22.24153405754476
 31
-5.0
  0
LINE
  5
41
330
17
100
AcDbEntity
  8
0
100
AcDbLine
 10
64.80749195079963
 20
46.01802240492499
 30
-5.0
 11
64.48641709817977
 21
30.08315090645518
 31
-5.0
  0
LINE
  5
42
330
17
100
AcDbEntity
  8
0
100
AcDbLine
 10
64.80749195079963
 20
46.018022404925
 30
-5.0
 11
64.65335040289523
 21
48.56802045156
 31
-5.0
  0
LINE
  5
43
330
17
100
AcDbEntity
  8
0
100
AcDbLine
 10
64.65335040289523
 20
48.56802045156
 30
-5.0
 11
55.342359599075245
 21
57.661289513186794
 31
-5.0
  0
LINE
  5
44
330
17
100
AcDbEntity
  8
0
100
AcDbLine
 10
15.43491194568822
 20
57.66128951318679
 30
-5.0
 11
55.342359599075245
 21
57.66128951318679
 31
-5.0
  0
LINE
  5
45
330
17
100
AcDbEntity
  8
0
100
AcDbLine
 10
15.434911945688235
 20
57.66128951318679
 30
-5.0
 11
11.884265526598725
 21
68.11129146655179
 31
-5.0
  0
LINE
  5
46
330
17
100
AcDbEntity
  8
0
100
AcDbLine
 10
11.884265526598728
 20
68.11129146655179
 30
-5.0
 11
10.965976345833923
 21
70.66128951318679
 31
-5.0
  0
LINE
  5
47
330
17
100
AcDbEntity
  8
0
100
AcDbLine
 10
-7.031940184434966
 20
70.66128951318679
 30
-5.0
 11
10.965976345833916
 21
70.66128951318679
 31
-5.0
  0
LINE
  5
48
330
17
100
AcDbEntity
  8
0
100
AcDbLine
 10
-7.031940184434966
 20
70.66128951318679
 30
-5.000000000000001
 11
-11.545973776872856
 21
73.48128951318678
 31
-5.000000000000001
  0
LINE
  5
49
330
17
100
AcDbEntity
  8
0
100
AcDbLine
 10
-29.23761311774385
 20
73.48128951318678
 30
-5.0
 11
-11.545973776872849
 21
73.48128951318678
 31
-5.0
  0
LINE
  5
4A
330
17
100
AcDbEntity
  8
0
100
AcDbLine
 10
-29.237613117743837
 20
73.48128951318678
 30
-5.0
 11
-30.96295780603869
 21
70.66128951318679
 31
-5.0
  0
LINE
  5
4B
330
17
100
AcDbEntity
  8
0
100
AcDbLine
 10
-67.38736496269485
 20
70.66128951318679
 30
-5.0
 11
-30.9629578060387
 21
70.66128951318679
 31
-5.0
  0
LINE
  5
4C
330
17
100
AcDbEntity
  8
0
100
AcDbLine
 10
-67.38736496269485
 20
70.66128951318679
 30
-5.0
 11
-75.89010432175017
 21
64.57472491550533
 31
-5.0
  0
LINE
  5
4D
330
17
100
AcDbEntity
  8
0
100
AcDbLine
 10
-85.39010432175017
 20
54.074724915505314
 30
-5.0
 11
-75.89010432175017
 21
64.57472491550533
 31
-5.0
  0
LINE
  5
4E
330
17
100
AcDbEntity
  8
0
100
AcDbLine
 10
-85.39010432175017
 20
54.07472491550533
 30
-5.0
 11
-86.78886983022234
 21
48.73818748340129
 31
-5.0
  0
ARC
  5
4F
330
17
100
AcDbEntity
  8
0
100
AcDbCircle
 10
-82.92845738940659
 20
46.05728916627042
 30
-5.0
 40
4.7
100
AcDbArc
 50
145.22160445854792
 51
185.40348733045752
  0
LINE
  5
50
330
17
100
AcDbEntity
  8
0
100
AcDbLine
 10
-87.60757169305593
 20
45.61469529669663
 30
-5.0
 11
-89.56681045706303
 21
38.139853417035525
 31
-5.0
  0
LINE
  5
51
330
17
100
AcDbEntity
  8
0
100
AcDbLine
 10
-89.566810457063
 20
38.13985341703552
 30
-5.0
 11
-90.57518954183533
 21
32.77752391982198
 31
-5.0
  0
LINE
  5
52
330
17
100
AcDbEntity
  8
0
100
AcDbLine
 10
-90.57518954183534
 20
32.77752391982199
 30
-5.0
 11
-92.7372116009617
 21
15.004487663010885
 31
-5.0
  0
LINE
  5
53
330
17
100
AcDbEntity
  8
0
100
AcDbLine
 10
-93.08115091471115
 20
9.25
 30
-5.0
 11
-92.73721160096173
 21
15.004487663010888
 31
-5.0
  0
LINE
  5
54
330
17
100
AcDbEntity
  8
0
100
AcDbLine
 10
-93.08115091471112
 20
9.25
 30
-5.0
 11
-93.08115091471112
 21
-9.25
 31
-5.0
  0
LINE
  5
55
330
17
100
AcDbEntity
  8
0
100
AcDbLine
 10
-93.08115091471115
 20
-9.250000000000002
 30
-5.0
 11
-92.73721160096173
 21
-15.004487663010888
 31
-5.0
  0
LINE
  5
56
330
17
100
AcDbEntity
  8
0
100
AcDbLine
 10
-91.750244081739
 20
-23.117915289428737
 30
-5.0
 11
-92.73721160096173
 21
-15.004487663010885
 31
-5.0
  0
ARC
  5
57
330
17
100
AcDbEntity
  8
0
100
AcDbCircle
 10
-87.10620057139855
 20
-23.84100579141644
 30
-5.0
 40
4.7
100
AcDbArc
 50
171.14994937211088
 51
202.7215221662502
  0
LINE
  5
58
330
17
100
AcDbEntity
  8
0
100
AcDbLine
 10
-90.57518954183537
 20
-32.777523919821995
 30
-5.0
 11
-91.44144797906154
 21
-25.65639277890738
 31
-5.0
  0
LINE
  5
59
330
17
100
AcDbEntity
  8
0
100
AcDbLine
 10
-83.69151359516233
 20
-38.39927388743693
 30
-5.000000000000001
 11
-90.57518954183537
 21
-32.777523919822
 31
-5.000000000000001
  0
LINE
  5
5A
330
17
100
AcDbEntity
  8
0
100
AcDbLine
 10
-91.30667391840274
 20
-44.78915210602476
 30
-5.0
 11
-83.69151359516235
 21
-38.39927388743692
 31
-5.0
  0
LINE
  5
5B
330
17
100
AcDbEntity
  8
0
100
AcDbLine
 10
-91.30667391840336
 20
-44.78915210602401
 30
-5.0
 11
-93.13670884692903
 21
-47.02064005084215
 31
-5.0
  0
LINE
  5
5C
330
17
100
AcDbEntity
  8
0
100
AcDbLine
 10
-93.13670884692903
 20
-47.02064005084214
 30
-5.0
 11
-88.99741240323752
 21
-56.330227591800295
 31
-5.0
  0
LINE
  5
5D
330
17
100
AcDbEntity
  8
0
100
AcDbLine
 10
-93.6732335790609
 20
-62.31500577942619
 30
-5.0
 11
-88.99741240323753
 21
-56.330227591800295
 31
-5.0
  0
LINE
  5
5E
330
17
100
AcDbEntity
  8
0
100
AcDbLine
 10
-98.7801753306831
 20
-72.46671653742783
 30
-5.0
 11
-93.67323357906068
 21
-62.315005779426365
 31
-5.0
  0
LINE
  5
5F
330
17
100
AcDbEntity
  8
0
100
AcDbLine
 10
-98.78017533068311
 20
-72.46671653742783
 30
-5.0
 11
-98.26332151451953
 21
-76.72936201391991
 31
-5.0
  0
LINE
  5
60
330
17
100
AcDbEntity
  8
0
100
AcDbLine
 10
-98.26332151451952
 20
-76.72936201391991
 30
-5.0
 11
-97.31382867696244
 21
-82.86999145261454
 31
-5.0
  0
LINE
  5
61
330
17
100
AcDbEntity
  8
0
100
AcDbLine
 10
-97.31382867696243
 20
-82.86999145261453
 30
-5.0
 11
-82.99192764122553
 21
-94.6317725820189
 31
-5.0
  0
LINE
  5
62
330
17
100
AcDbEntity
  8
0
100
AcDbLine
 10
-81.31718819468031
 20
-95.35307059691961
 30
-5.0
 11
-82.99192764122553
 21
-94.6317725820189
 31
-5.0
  0
LINE
  5
63
330
17
100
AcDbEntity
  8
0
100
AcDbLine
 10
-81.31718819468031
 20
-95.35307059691961
 30
-5.0
 11
-78.9457224897939
 21
-95.12516793591647
 31
-5.0
  0
LINE
  5
64
330
17
100
AcDbEntity
  8
0
100
AcDbLine
 10
-78.94572248979388
 20
-95.12516793591647
 30
-5.0
 11
-64.75254538071206
 21
-107.67448636215329
 31
-5.0
  0
LINE
  5
65
330
17
100
AcDbEntity
  8
0
100
AcDbLine
 10
-52.338225743348005
 20
-108.19785383346071
 30
-5.0
 11
-64.75254538071206
 21
-107.67448636215329
 31
-5.0
  0
LINE
  5
66
330
17
100
AcDbEntity
  8
0
100
AcDbLine
 10
-50.92212678669881
 20
-108.22755020164503
 30
-5.0
 11
-52.33822574334802
 21
-108.19785383346074
 31
-5.0
  0
LINE
  5
67
330
17
100
AcDbEntity
  8
0
100
AcDbLine
 10
-48.92028263219572
 20
-107.06943444930045
 30
-5.0
 11
-50.922126786698804
 21
-108.22755020164502
 31
-5.0
  0
CIRCLE
  5
68
330
17
100
AcDbEntity
  8
0
100
AcDbCircle
 10
-47.3047966473042
 20
-93.72752391982198
 30
-5.0
 40
3.0
  0
CIRCLE
  5
69
330
17
100
AcDbEntity
  8
0
100
AcDbCircle
 10
-87.10620057139852
 20
-23.841005791416435
 30
-5.0
 40
3.0
  0
CIRCLE
  5
6A
330
17
100
AcDbEntity
  8
0
100
AcDbCircle
 10
57.69608285984533
 20
40.557283421079255
 30
-5.0
 40
3.0
  0
CIRCLE
  5
6B
330
17
100
AcDbEntity
  8
0
100
AcDbCircle
 10
1.2891788393247476
 20
65.42183448243989
 30
-5.0
 40
3.0
  0
CIRCLE
  5
6C
330
17
100
AcDbEntity
  8
0
100
AcDbCircle
 10
57.32263129957172
 20
-40.72328826399051
 30
-5.0
 40
3.0
  0
CIRCLE
  5
6D
330
17
100
AcDbEntity
  8
0
100
AcDbCircle
 10
-82.92845738940656
 20
46.05728916627041
 30
-5.0
 40
3.0
  0
CIRCLE
  5
6E
330
17
100
AcDbEntity
  8
0
100
AcDbCircle
 10
1.2112120798827153
 20
-64.77231526375228
 30
-5.0
 40
3.0
  0
LINE
  5
6F
330
17
100
AcDbEntity
  8
0
100
AcDbLine
 10
-48.92028263219573
 20
-107.06943444930043
 30
-5.0
 11
-48.92028263219573
 21
-107.06943444930043
 31
0.0
  0
LINE
  5
70
330
17
100
AcDbEntity
  8
0
100
AcDbLine
 10
-42.492201837574484
 20
-100.61354588354081
 30
-5.0
 11
-42.492201837574484
 21
-100.61354588354081
 31
0.0
  0
LINE
  5
71
330
17
100
AcDbEntity
  8
0
100
AcDbLine
 10
-48.92028263219573
 20
-107.06943444930045
 30
0.0
 11
-42.49220183757449
 21
-100.61354588354081
 31
0.0
  0
LINE
  5
72
330
17
100
AcDbEntity
  8
0
100
AcDbLine
 10
-50.92212678669881
 20
-108.227550201645
 30
-5.0
 11
-50.92212678669881
 21
-108.227550201645
 31
0.0
  0
LINE
  5
73
330
17
100
AcDbEntity
  8
0
100
AcDbLine
 10
-48.92028263219572
 20
-107.06943444930045
 30
0.0
 11
-50.922126786698804
 21
-108.22755020164502
 31
0.0
  0
LINE
  5
74
330
17
100
AcDbEntity
  8
0
100
AcDbLine
 10
-37.9676801740888
 20
-94.38607606713896
 30
-5.0
 11
-37.9676801740888
 21
-94.38607606713896
 31
0.0
  0
LINE
  5
75
330
17
100
AcDbEntity
  8
0
100
AcDbLine
 10
-42.49220183757469
 20
-100.61354588354067
 30
0.0
 11
-37.96768017408881
 21
-94.38607606713896
 31
0.0
  0
LINE
  5
76
330
17
100
AcDbEntity
  8
0
100
AcDbLine
 10
-52.33822574334801
 20
-108.19785383346071
 30
-5.0
 11
-52.33822574334801
 21
-108.19785383346071
 31
0.0
  0
LINE
  5
77
330
17
100
AcDbEntity
  8
0
100
AcDbLine
 10
-50.92212678669881
 20
-108.22755020164503
 30
0.0
 11
-52.33822574334802
 21
-108.19785383346074
 31
0.0
  0
LINE
  5
78
330
17
100
AcDbEntity
  8
0
100
AcDbLine
 10
-39.80931908726454
 20
-90.21550328194746
 30
-5.0
 11
-39.80931908726454
 21
-90.21550328194746
 31
0.0
  0
LINE
  5
79
330
17
100
AcDbEntity
  8
0
100
AcDbLine
 10
-37.9676801740888
 20
-94.38607606713896
 30
0.0
 11
-39.80931908726454
 21
-90.21550328194746
 31
0.0
  0
LINE
  5
7A
330
17
100
AcDbEntity
  8
0
100
AcDbLine
 10
-64.75254538071206
 20
-107.67448636215329
 30
-5.0
 11
-64.75254538071206
 21
-107.67448636215329
 31
0.0
  0
LINE
  5
7B
330
17
100
AcDbEntity
  8
0
100
AcDbLine
 10
-52.338225743348005
 20
-108.19785383346071
 30
0.0
 11
-64.75254538071206
 21
-107.67448636215329
 31
0.0
  0
LINE
  5
7C
330
17
100
AcDbEntity
  8
0
100
AcDbLine
 10
-29.60220587669277
 20
-78.87935561000808
 30
-5.0
 11
-29.60220587669277
 21
-78.87935561000808
 31
0.0
  0
LINE
  5
7D
330
17
100
AcDbEntity
  8
0
100
AcDbLine
 10
-39.809319087265244
 20
-90.21550328194684
 30
0.0
 11
-29.602205876692764
 21
-78.87935561000808
 31
0.0
  0
LINE
  5
7E
330
17
100
AcDbEntity
  8
0
100
AcDbLine
 10
-78.94572248979388
 20
-95.12516793591647
 30
-5.0
 11
-78.94572248979388
 21
-95.12516793591647
 31
0.0
  0
LINE
  5
7F
330
17
100
AcDbEntity
  8
0
100
AcDbLine
 10
-78.94572248979388
 20
-95.12516793591647
 30
0.0
 11
-64.75254538071206
 21
-107.67448636215329
 31
0.0
  0
LINE
  5
80
330
17
100
AcDbEntity
  8
0
100
AcDbLine
 10
-22.66740806703622
 20
-67.17312904720157
 30
-5.0
 11
-22.66740806703622
 21
-67.17312904720157
 31
0.0
  0
LINE
  5
81
330
17
100
AcDbEntity
  8
0
100
AcDbLine
 10
-29.60220587669277
 20
-78.87935561000808
 30
-8.881784197001252e-16
 11
-22.66740806703621
 21
-67.17312904720154
 31
-8.881784197001252e-16
  0
LINE
  5
82
330
17
100
AcDbEntity
  8
0
100
AcDbLine
 10
-81.31718819468031
 20
-95.35307059691961
 30
-5.0
 11
-81.31718819468031
 21
-95.35307059691961
 31
0.0
  0
LINE
  5
83
330
17
100
AcDbEntity
  8
0
100
AcDbLine
 10
-81.31718819468031
 20
-95.35307059691961
 30
0.0
 11
-78.9457224897939
 21
-95.12516793591647
 31
0.0
  0
LINE
  5
84
330
17
100
AcDbEntity
  8
0
100
AcDbLine
 10
-7.1297549481864255
 20
-70.66128951318679
 30
-5.0
 11
-7.1297549481864255
 21
-70.66128951318679
 31
0.0
  0
LINE
  5
85
330
17
100
AcDbEntity
  8
0
100
AcDbLine
 10
-22.66740806703622
 20
-67.17312904720156
 30
-8.881784197001252e-16
 11
-7.129754948186422
 21
-70.66128951318679
 31
-8.881784197001252e-16
  0
LINE
  5
86
330
17
100
AcDbEntity
  8
0
100
AcDbLine
 10
-82.99192764122553
 20
-94.6317725820189
 30
-5.0
 11
-82.99192764122553
 21
-94.6317725820189
 31
0.0
  0
LINE
  5
87
330
17
100
AcDbEntity
  8
0
100
AcDbLine
 10
-81.31718819468031
 20
-95.35307059691961
 30
0.0
 11
-82.99192764122553
 21
-94.6317725820189
 31
0.0
  0
LINE
  5
88
330
17
100
AcDbEntity
  8
0
100
AcDbLine
 10
15.612177624028329
 20
-70.66128951318679
 30
-5.0
 11
15.612177624028329
 21
-70.66128951318679
 31
0.0
  0
LINE
  5
89
330
17
100
AcDbEntity
  8
0
100
AcDbLine
 10
15.612177624028327
 20
-70.66128951318679
 30
0.0
 11
-7.1297549481864255
 21
-70.66128951318679
 31
0.0
  0
LINE
  5
8A
330
17
100
AcDbEntity
  8
0
100
AcDbLine
 10
-97.31382867696244
 20
-82.86999145261454
 30
-5.0
 11
-97.31382867696244
 21
-82.86999145261454
 31
0.0
  0
LINE
  5
8B
330
17
100
AcDbEntity
  8
0
100
AcDbLine
 10
-97.31382867696243
 20
-82.86999145261453
 30
0.0
 11
-82.99192764122553
 21
-94.6317725820189
 31
0.0
  0
LINE
  5
8C
330
17
100
AcDbEntity
  8
0
100
AcDbLine
 10
16.530466804793132
 20
-68.11129146655179
 30
-5.0
 11
16.530466804793132
 21
-68.11129146655179
 31
0.0
  0
LINE
  5
8D
330
17
100
AcDbEntity
  8
0
100
AcDbLine
 10
15.612177624028334
 20
-70.66128951318679
 30
0.0
 11
16.530466804793136
 21
-68.11129146655179
 31
0.0
  0
LINE
  5
8E
330
17
100
AcDbEntity
  8
0
100
AcDbLine
 10
-98.26332151451952
 20
-76.72936201391991
 30
-5.0
 11
-98.26332151451952
 21
-76.72936201391991
 31
0.0
  0
LINE
  5
8F
330
17
100
AcDbEntity
  8
0
100
AcDbLine
 10
-98.26332151451952
 20
-76.72936201391991
 30
0.0
 11
-97.31382867696244
 21
-82.86999145261454
 31
0.0
  0
LINE
  5
90
330
17
100
AcDbEntity
  8
0
100
AcDbLine
 10
18.545265632331287
 20
-59.80032446355677
 30
-5.0
 11
18.545265632331287
 21
-59.80032446355677
 31
0.0
  0
LINE
  5
91
330
17
100
AcDbEntity
  8
0
100
AcDbLine
 10
16.530466804793136
 20
-68.11129146655179
 30
0.0
 11
18.54526563233129
 21
-59.80032446355677
 31
0.0
  0
LINE
  5
92
330
17
100
AcDbEntity
  8
0
100
AcDbLine
 10
-98.7801753306831
 20
-72.46671653742783
 30
-5.0
 11
-98.7801753306831
 21
-72.46671653742783
 31
0.0
  0
LINE
  5
93
330
17
100
AcDbEntity
  8
0
100
AcDbLine
 10
-98.78017533068311
 20
-72.46671653742783
 30
0.0
 11
-98.26332151451953
 21
-76.72936201391991
 31
0.0
  0
LINE
  5
94
330
17
100
AcDbEntity
  8
0
100
AcDbLine
 10
54.80267069061334
 20
-59.80032446355678
 30
-5.0
 11
54.80267069061334
 21
-59.80032446355678
 31
0.0
  0
LINE
  5
95
330
17
100
AcDbEntity
  8
0
100
AcDbLine
 10
18.54526563233128
 20
-59.80032446355678
 30
0.0
 11
54.80267069061334
 21
-59.80032446355678
 31
0.0
  0
LINE
  5
96
330
17
100
AcDbEntity
  8
0
100
AcDbLine
 10
-93.67323357906068
 20
-62.31500577942636
 30
-5.0
 11
-93.67323357906068
 21
-62.31500577942636
 31
0.0
  0
LINE
  5
97
330
17
100
AcDbEntity
  8
0
100
AcDbLine
 10
-98.7801753306831
 20
-72.46671653742783
 30
0.0
 11
-93.67323357906068
 21
-62.315005779426365
 31
0.0
  0
LINE
  5
98
330
17
100
AcDbEntity
  8
0
100
AcDbLine
 10
64.20204084410304
 20
-49.65810268657218
 30
-5.0
 11
64.20204084410304
 21
-49.65810268657218
 31
0.0
  0
LINE
  5
99
330
17
100
AcDbEntity
  8
0
100
AcDbLine
 10
54.80267069061333
 20
-59.80032446355677
 30
0.0
 11
64.20204084410304
 21
-49.65810268657217
 31
0.0
  0
LINE
  5
9A
330
17
100
AcDbEntity
  8
0
100
AcDbLine
 10
-88.99741240323752
 20
-56.330227591800295
 30
-5.0
 11
-88.99741240323752
 21
-56.330227591800295
 31
0.0
  0
LINE
  5
9B
330
17
100
AcDbEntity
  8
0
100
AcDbLine
 10
-93.6732335790609
 20
-62.31500577942619
 30
0.0
 11
-88.99741240323753
 21
-56.330227591800295
 31
0.0
  0
LINE
  5
9C
330
17
100
AcDbEntity
  8
0
100
AcDbLine
 10
64.37396336759808
 20
-48.338126645897
 30
-5.0
 11
64.37396336759808
 21
-48.338126645897
 31
0.0
  0
LINE
  5
9D
330
17
100
AcDbEntity
  8
0
100
AcDbLine
 10
64.20204084410304
 20
-49.65810268657218
 30
0.0
 11
64.37396336759808
 21
-48.338126645897006
 31
0.0
  0
LINE
  5
9E
330
17
100
AcDbEntity
  8
0
100
AcDbLine
 10
-93.13670884692903
 20
-47.02064005084214
 30
-5.0
 11
-93.13670884692903
 21
-47.02064005084214
 31
0.0
  0
LINE
  5
9F
330
17
100
AcDbEntity
  8
0
100
AcDbLine
 10
-93.13670884692903
 20
-47.02064005084214
 30
0.0
 11
-88.99741240323752
 21
-56.330227591800295
 31
0.0
  0
LINE
  5
A0
330
17
100
AcDbEntity
  8
0
100
AcDbLine
 10
64.2077628039224
 20
-30.565090389085896
 30
-5.0
 11
64.2077628039224
 21
-30.565090389085896
 31
0.0
  0
LINE
  5
A1
330
17
100
AcDbEntity
  8
0
100
AcDbLine
 10
64.2077628039224
 20
-30.5650903890859
 30
0.0
 11
64.37396336759808
 21
-48.338126645897006
 31
0.0
  0
LINE
  5
A2
330
17
100
AcDbEntity
  8
0
100
AcDbLine
 10
-91.30667391840336
 20
-44.789152106024005
 30
-5.0
 11
-91.30667391840336
 21
-44.789152106024005
 31
0.0
  0
LINE
  5
A3
330
17
100
AcDbEntity
  8
0
100
AcDbLine
 10
-91.30667391840336
 20
-44.78915210602401
 30
0.0
 11
-93.13670884692903
 21
-47.02064005084215
 31
0.0
  0
LINE
  5
A4
330
17
100
AcDbEntity
  8
0
100
AcDbLine
 10
64.16909884560498
 20
-22.15
 30
-5.0
 11
64.16909884560498
 21
-22.15
 31
0.0
  0
LINE
  5
A5
330
17
100
AcDbEntity
  8
0
100
AcDbLine
 10
64.2077628039224
 20
-30.565090389085903
 30
0.0
 11
64.16909884560498
 21
-22.15
 31
0.0
  0
LINE
  5
A6
330
17
100
AcDbEntity
  8
0
100
AcDbLine
 10
-83.69151359516232
 20
-38.39927388743692
 30
-5.0
 11
-83.69151359516232
 21
-38.39927388743692
 31
0.0
  0
LINE
  5
A7
330
17
100
AcDbEntity
  8
0
100
AcDbLine
 10
-91.30667391840274
 20
-44.78915210602476
 30
0.0
 11
-83.69151359516235
 21
-38.39927388743692
 31
0.0
  0
LINE
  5
A8
330
17
100
AcDbEntity
  8
0
100
AcDbLine
 10
64.16909884560498
 20
-3.8500000000000014
 30
-5.0
 11
64.16909884560498
 21
-3.8500000000000014
 31
0.0
  0
LINE
  5
A9
330
17
100
AcDbEntity
  8
0
100
AcDbLine
 10
64.16909884560498
 20
-22.15
 30
0.0
 11
64.16909884560498
 21
-3.8500000000000014
 31
0.0
  0
LINE
  5
AA
330
17
100
AcDbEntity
  8
0
100
AcDbLine
 10
-90.57518954183536
 20
-32.77752391982199
 30
-5.0
 11
-90.57518954183536
 21
-32.77752391982199
 31
0.0
  0
LINE
  5
AB
330
17
100
AcDbEntity
  8
0
100
AcDbLine
 10
-83.69151359516233
 20
-38.39927388743693
 30
-8.881784197001252e-16
 11
-90.57518954183537
 21
-32.777523919822
 31
-8.881784197001252e-16
  0
LINE
  5
AC
330
17
100
AcDbEntity
  8
0
100
AcDbLine
 10
64.2077628039224
 20
4.565090389085896
 30
-5.0
 11
64.2077628039224
 21
4.565090389085896
 31
0.0
  0
LINE
  5
AD
330
17
100
AcDbEntity
  8
0
100
AcDbLine
 10
64.16909884560496
 20
-3.8500000000000005
 30
0.0
 11
64.20776280392239
 21
4.565090389085897
 31
0.0
  0
LINE
  5
AE
330
17
100
AcDbEntity
  8
0
100
AcDbLine
 10
-91.44144797906152
 20
-25.656392778907378
 30
-5.0
 11
-91.44144797906152
 21
-25.656392778907378
 31
0.0
  0
LINE
  5
AF
330
17
100
AcDbEntity
  8
0
100
AcDbLine
 10
-90.57518954183537
 20
-32.777523919821995
 30
0.0
 11
-91.44144797906154
 21
-25.65639277890738
 31
0.0
  0
LINE
  5
B0
330
17
100
AcDbEntity
  8
0
100
AcDbLine
 10
64.37306010366507
 20
22.24153405754476
 30
-5.0
 11
64.37306010366507
 21
22.24153405754476
 31
0.0
  0
LINE
  5
B1
330
17
100
AcDbEntity
  8
0
100
AcDbLine
 10
64.20776280392397
 20
4.565090389085865
 30
0.0
 11
64.37306010366507
 21
22.241534057544783
 31
0.0
  0
LINE
  5
B2
330
17
100
AcDbEntity
  8
0
100
AcDbLine
 10
-91.75024408173898
 20
-23.117915289428733
 30
-5.0
 11
-91.75024408173898
 21
-23.117915289428733
 31
0.0
  0
ARC
  5
B3
330
17
100
AcDbEntity
  8
0
100
AcDbCircle
 10
-87.10620057139855
 20
-23.84100579141644
 30
0.0
 40
4.7
100
AcDbArc
 50
171.14994937211088
 51
202.7215221662502
  0
LINE
  5
B4
330
17
100
AcDbEntity
  8
0
100
AcDbLine
 10
64.48641709817895
 20
30.083150906455202
 30
-5.0
 11
64.48641709817895
 21
30.083150906455202
 31
0.0
  0
LINE
  5
B5
330
17
100
AcDbEntity
  8
0
100
AcDbLine
 10
64.48641709817895
 20
30.083150906455202
 30
0.0
 11
64.37306010366507
 21
22.24153405754476
 31
0.0
  0
LINE
  5
B6
330
17
100
AcDbEntity
  8
0
100
AcDbLine
 10
-92.73721160096171
 20
-15.004487663010886
 30
-5.0
 11
-92.73721160096171
 21
-15.004487663010886
 31
0.0
  0
LINE
  5
B7
330
17
100
AcDbEntity
  8
0
100
AcDbLine
 10
-91.750244081739
 20
-23.117915289428737
 30
0.0
 11
-92.73721160096173
 21
-15.004487663010885
 31
0.0
  0
LINE
  5
B8
330
17
100
AcDbEntity
  8
0
100
AcDbLine
 10
64.80749195079963
 20
46.018022404925
 30
-5.0
 11
64.80749195079963
 21
46.018022404925
 31
0.0
  0
LINE
  5
B9
330
17
100
AcDbEntity
  8
0
100
AcDbLine
 10
64.80749195079963
 20
46.01802240492499
 30
0.0
 11
64.48641709817977
 21
30.08315090645518
 31
0.0
  0
LINE
  5
BA
330
17
100
AcDbEntity
  8
0
100
AcDbLine
 10
-93.08115091471113
 20
-9.25
 30
-5.0
 11
-93.08115091471113
 21
-9.25
 31
0.0
  0
LINE
  5
BB
330
17
100
AcDbEntity
  8
0
100
AcDbLine
 10
-93.08115091471115
 20
-9.250000000000002
 30
0.0
 11
-92.73721160096173
 21
-15.004487663010888
 31
0.0
  0
LINE
  5
BC
330
17
100
AcDbEntity
  8
0
100
AcDbLine
 10
64.65335040289523
 20
48.56802045156
 30
-5.0
 11
64.65335040289523
 21
48.56802045156
 31
0.0
  0
LINE
  5
BD
330
17
100
AcDbEntity
  8
0
100
AcDbLine
 10
64.80749195079963
 20
46.018022404925
 30
0.0
 11
64.65335040289523
 21
48.56802045156
 31
0.0
  0
LINE
  5
BE
330
17
100
AcDbEntity
  8
0
100
AcDbLine
 10
-93.08115091471113
 20
9.25
 30
-5.0
 11
-93.08115091471113
 21
9.25
 31
0.0
  0
LINE
  5
BF
330
17
100
AcDbEntity
  8
0
100
AcDbLine
 10
-93.08115091471112
 20
9.25
 30
0.0
 11
-93.08115091471112
 21
-9.25
 31
0.0
  0
LINE
  5
C0
330
17
100
AcDbEntity
  8
0
100
AcDbLine
 10
55.34235959907524
 20
57.66128951318679
 30
-5.0
 11
55.34235959907524
 21
57.66128951318679
 31
0.0
  0
LINE
  5
C1
330
17
100
AcDbEntity
  8
0
100
AcDbLine
 10
64.65335040289523
 20
48.56802045156
 30
0.0
 11
55.342359599075245
 21
57.661289513186794
 31
0.0
  0
LINE
  5
C2
330
17
100
AcDbEntity
  8
0
100
AcDbLine
 10
-92.73721160096171
 20
15.004487663010886
 30
-5.0
 11
-92.73721160096171
 21
15.004487663010886
 31
0.0
  0
LINE
  5
C3
330
17
100
AcDbEntity
  8
0
100
AcDbLine
 10
-93.08115091471115
 20
9.25
 30
0.0
 11
-92.73721160096173
 21
15.004487663010888
 31
0.0
  0
LINE
  5
C4
330
17
100
AcDbEntity
  8
0
100
AcDbLine
 10
15.43491194568823
 20
57.66128951318679
 30
-5.0
 11
15.43491194568823
 21
57.66128951318679
 31
0.0
  0
LINE
  5
C5
330
17
100
AcDbEntity
  8
0
100
AcDbLine
 10
15.43491194568822
 20
57.66128951318679
 30
0.0
 11
55.342359599075245
 21
57.66128951318679
 31
0.0
  0
LINE
  5
C6
330
17
100
AcDbEntity
  8
0
100
AcDbLine
 10
-90.57518954183536
 20
32.77752391982199
 30
-5.0
 11
-90.57518954183536
 21
32.77752391982199
 31
0.0
  0
LINE
  5
C7
330
17
100
AcDbEntity
  8
0
100
AcDbLine
 10
-90.57518954183534
 20
32.77752391982199
 30
0.0
 11
-92.7372116009617
 21
15.004487663010885
 31
0.0
  0
LINE
  5
C8
330
17
100
AcDbEntity
  8
0
100
AcDbLine
 10
11.884265526598721
 20
68.11129146655179
 30
-5.0
 11
11.884265526598721
 21
68.11129146655179
 31
0.0
  0
LINE
  5
C9
330
17
100
AcDbEntity
  8
0
100
AcDbLine
 10
15.434911945688235
 20
57.66128951318679
 30
0.0
 11
11.884265526598725
 21
68.11129146655179
 31
0.0
  0
LINE
  5
CA
330
17
100
AcDbEntity
  8
0
100
AcDbLine
 10
-89.56681045706303
 20
38.139853417035525
 30
-5.0
 11
-89.56681045706303
 21
38.139853417035525
 31
0.0
  0
LINE
  5
CB
330
17
100
AcDbEntity
  8
0
100
AcDbLine
 10
-89.566810457063
 20
38.13985341703552
 30
0.0
 11
-90.57518954183533
 21
32.77752391982198
 31
0.0
  0
LINE
  5
CC
330
17
100
AcDbEntity
  8
0
100
AcDbLine
 10
10.965976345833917
 20
70.66128951318679
 30
-5.0
 11
10.965976345833917
 21
70.66128951318679
 31
0.0
  0
LINE
  5
CD
330
17
100
AcDbEntity
  8
0
100
AcDbLine
 10
11.884265526598728
 20
68.11129146655179
 30
0.0
 11
10.965976345833923
 21
70.66128951318679
 31
0.0
  0
LINE
  5
CE
330
17
100
AcDbEntity
  8
0
100
AcDbLine
 10
-87.60757169305592
 20
45.61469529669663
 30
-5.0
 11
-87.60757169305592
 21
45.61469529669663
 31
0.0
  0
LINE
  5
CF
330
17
100
AcDbEntity
  8
0
100
AcDbLine
 10
-87.60757169305593
 20
45.61469529669663
 30
0.0
 11
-89.56681045706303
 21
38.139853417035525
 31
0.0
  0
LINE
  5
D0
330
17
100
AcDbEntity
  8
0
100
AcDbLine
 10
-7.031940184434962
 20
70.66128951318679
 30
-5.0
 11
-7.031940184434962
 21
70.66128951318679
 31
0.0
  0
LINE
  5
D1
330
17
100
AcDbEntity
  8
0
100
AcDbLine
 10
-7.031940184434966
 20
70.66128951318679
 30
0.0
 11
10.965976345833916
 21
70.66128951318679
 31
0.0
  0
LINE
  5
D2
330
17
100
AcDbEntity
  8
0
100
AcDbLine
 10
-86.78886983022232
 20
48.73818748340128
 30
-5.0
 11
-86.78886983022232
 21
48.73818748340128
 31
0.0
  0
ARC
  5
D3
330
17
100
AcDbEntity
  8
0
100
AcDbCircle
 10
-82.92845738940659
 20
46.05728916627042
 30
0.0
 40
4.7
100
AcDbArc
 50
145.22160445854792
 51
185.40348733045752
  0
LINE
  5
D4
330
17
100
AcDbEntity
  8
0
100
AcDbLine
 10
-11.545973776872849
 20
73.48128951318678
 30
-5.0
 11
-11.545973776872849
 21
73.48128951318678
 31
0.0
  0
LINE
  5
D5
330
17
100
AcDbEntity
  8
0
100
AcDbLine
 10
-7.031940184434966
 20
70.66128951318679
 30
-8.881784197001252e-16
 11
-11.545973776872856
 21
73.48128951318678
 31
-8.881784197001252e-16
  0
LINE
  5
D6
330
17
100
AcDbEntity
  8
0
100
AcDbLine
 10
-85.39010432175017
 20
54.07472491550532
 30
-5.0
 11
-85.39010432175017
 21
54.07472491550532
 31
0.0
  0
LINE
  5
D7
330
17
100
AcDbEntity
  8
0
100
AcDbLine
 10
-85.39010432175017
 20
54.07472491550533
 30
0.0
 11
-86.78886983022234
 21
48.73818748340129
 31
0.0
  0
LINE
  5
D8
330
17
100
AcDbEntity
  8
0
100
AcDbLine
 10
-29.237613117743848
 20
73.48128951318678
 30
-5.0
 11
-29.237613117743848
 21
73.48128951318678
 31
0.0
  0
LINE
  5
D9
330
17
100
AcDbEntity
  8
0
100
AcDbLine
 10
-29.23761311774385
 20
73.48128951318678
 30
0.0
 11
-11.545973776872849
 21
73.48128951318678
 31
0.0
  0
LINE
  5
DA
330
17
100
AcDbEntity
  8
0
100
AcDbLine
 10
-75.89010432175017
 20
64.57472491550533
 30
-5.0
 11
-75.89010432175017
 21
64.57472491550533
 31
0.0
  0
LINE
  5
DB
330
17
100
AcDbEntity
  8
0
100
AcDbLine
 10
-85.39010432175017
 20
54.074724915505314
 30
0.0
 11
-75.89010432175017
 21
64.57472491550533
 31
0.0
  0
LINE
  5
DC
330
17
100
AcDbEntity
  8
0
100
AcDbLine
 10
-30.962957806038702
 20
70.66128951318679
 30
-5.0
 11
-30.962957806038702
 21
70.66128951318679
 31
0.0
  0
LINE
  5
DD
330
17
100
AcDbEntity
  8
0
100
AcDbLine
 10
-29.237613117743837
 20
73.48128951318678
 30
0.0
 11
-30.96295780603869
 21
70.66128951318679
 31
0.0
  0
LINE
  5
DE
330
17
100
AcDbEntity
  8
0
100
AcDbLine
 10
-67.38736496269485
 20
70.66128951318679
 30
-5.0
 11
-67.38736496269485
 21
70.66128951318679
 31
0.0
  0
LINE
  5
DF
330
17
100
AcDbEntity
  8
0
100
AcDbLine
 10
-67.38736496269485
 20
70.66128951318679
 30
0.0
 11
-75.89010432175017
 21
64.57472491550533
 31
0.0
  0
LINE
  5
E0
330
17
100
AcDbEntity
  8
0
100
AcDbLine
 10
-67.38736496269485
 20
70.66128951318679
 30
0.0
 11
-30.9629578060387
 21
70.66128951318679
 31
0.0
  0
LINE
  5
E1
330
17
100
AcDbEntity
  8
0
100
AcDbLine
 10
-44.3047966473042
 20
-93.72752391982198
 30
-5.0
 11
-44.3047966473042
 21
-93.72752391982198
 31
-3.75
  0
CIRCLE
  5
E2
330
17
100
AcDbEntity
  8
0
100
AcDbCircle
 10
-47.3047966473042
 20
-93.72752391982198
 30
-3.75
 40
3.0
  0
LINE
  5
E3
330
17
100
AcDbEntity
  8
0
100
AcDbLine
 10
-84.10620057139852
 20
-23.841005791416435
 30
-5.0
 11
-84.10620057139852
 21
-23.841005791416435
 31
-3.75
  0
CIRCLE
  5
E4
330
17
100
AcDbEntity
  8
0
100
AcDbCircle
 10
-87.10620057139852
 20
-23.841005791416435
 30
-3.75
 40
3.0
  0
LINE
  5
E5
330
17
100
AcDbEntity
  8
0
100
AcDbLine
 10
4.211212079882715
 20
-64.77231526375228
 30
-5.0
 11
4.211212079882715
 21
-64.77231526375228
 31
-3.75
  0
CIRCLE
  5
E6
330
17
100
AcDbEntity
  8
0
100
AcDbCircle
 10
1.2112120798827153
 20
-64.77231526375228
 30
-3.75
 40
3.0
  0
LINE
  5
E7
330
17
100
AcDbEntity
  8
0
100
AcDbLine
 10
60.32263129957172
 20
-40.72328826399051
 30
-5.0
 11
60.32263129957172
 21
-40.72328826399051
 31
-3.75
  0
CIRCLE
  5
E8
330
17
100
AcDbEntity
  8
0
100
AcDbCircle
 10
57.32263129957172
 20
-40.72328826399051
 30
-3.75
 40
3.0
  0
LINE
  5
E9
330
17
100
AcDbEntity
  8
0
100
AcDbLine
 10
-79.92845738940656
 20
46.05728916627041
 30
-5.0
 11
-79.92845738940656
 21
46.05728916627041
 31
-3.75
  0
CIRCLE
  5
EA
330
17
100
AcDbEntity
  8
0
100
AcDbCircle
 10
-82.92845738940656
 20
46.05728916627041
 30
-3.75
 40
3.0
  0
LINE
  5
EB
330
17
100
AcDbEntity
  8
0
100
AcDbLine
 10
4.289178839324748
 20
65.42183448243989
 30
-5.0
 11
4.289178839324748
 21
65.42183448243989
 31
-3.75
  0
CIRCLE
  5
EC
330
17
100
AcDbEntity
  8
0
100
AcDbCircle
 10
1.2891788393247476
 20
65.42183448243989
 30
-3.75
 40
3.0
  0
LINE
  5
ED
330
17
100
AcDbEntity
  8
0
100
AcDbLine
 10
60.69608285984533
 20
40.557283421079255
 30
-5.0
 11
60.69608285984533
 21
40.557283421079255
 31
-3.75
  0
CIRCLE
  5
EE
330
17
100
AcDbEntity
  8
0
100
AcDbCircle
 10
57.69608285984533
 20
40.557283421079255
 30
-3.75
 40
3.0
  0
CIRCLE
  5
EF
330
17
100
AcDbEntity
  8
0
100
AcDbCircle
 10
-47.30479664730421
 20
-93.72752391982199
 30
0.0
 40
1.5
  0
CIRCLE
  5
F0
330
17
100
AcDbEntity
  8
0
100
AcDbCircle
 10
-87.10620057139855
 20
-23.84100579141644
 30
0.0
 40
1.5
  0
CIRCLE
  5
F1
330
17
100
AcDbEntity
  8
0
100
AcDbCircle
 10
1.2112120798827084
 20
-64.77231526375229
 30
0.0
 40
1.5
  0
CIRCLE
  5
F2
330
17
100
AcDbEntity
  8
0
100
AcDbCircle
 10
57.32263129957171
 20
-40.72328826399051
 30
0.0
 40
1.5
  0
CIRCLE
  5
F3
330
17
100
AcDbEntity
  8
0
100
AcDbCircle
 10
-82.92845738940659
 20
46.05728916627042
 30
0.0
 40
1.5
  0
CIRCLE
  5
F4
330
17
100
AcDbEntity
  8
0
100
AcDbCircle
 10
1.289178839324741
 20
65.42183448243992
 30
0.0
 40
1.5
  0
CIRCLE
  5
F5
330
17
100
AcDbEntity
  8
0
100
AcDbCircle
 10
57.69608285984534
 20
40.55728342107926
 30
0.0
 40
1.5
  0
LINE
  5
F6
330
17
100
AcDbEntity
  8
0
100
AcDbLine
 10
-79.19375807413738
 20
-41.293093405295494
 30
0.0
 11
-87.84449656867571
 21
-48.55192488547371
 31
0.0
  0
LINE
  5
F7
330
17
100
AcDbEntity
  8
0
100
AcDbLine
 10
-83.36736121336706
 20
-57.15537548017076
 30
0.0
 11
-87.84449656867571
 21
-48.5519248854737
 31
0.0
  0
LINE
  5
F8
330
17
100
AcDbEntity
  8
0
100
AcDbLine
 10
-83.3673612133671
 20
-57.15537548017076
 30
0.0
 11
-84.66042906858239
 21
-58.81042686131142
 31
0.0
  0
LINE
  5
F9
330
17
100
AcDbEntity
  8
0
100
AcDbLine
 10
-93.756869561391
 20
-76.23643461356042
 30
0.0
 11
-84.66042906858236
 21
-58.810426861311434
 31
0.0
  0
LINE
  5
FA
330
17
100
AcDbEntity
  8
0
100
AcDbLine
 10
-93.75686956139099
 20
-76.2364346135604
 30
0.0
 11
-93.35260370031286
 21
-78.35342088692943
 31
0.0
  0
LINE
  5
FB
330
17
100
AcDbEntity
  8
0
100
AcDbLine
 10
-93.35260370031286
 20
-78.3534208869294
 30
0.0
 11
-79.16993450307766
 21
-89.96965122167387
 31
0.0
  0
LINE
  5
FC
330
17
100
AcDbEntity
  8
0
100
AcDbLine
 10
-79.16993450307766
 20
-89.96965122167387
 30
0.0
 11
-75.04871450388808
 21
-90.78756291491837
 31
0.0
  0
LINE
  5
FD
330
17
100
AcDbEntity
  8
0
100
AcDbLine
 10
-75.04871450388809
 20
-90.7875629149184
 30
8.881784197001252e-16
 11
-74.85676186429228
 21
-90.87284519211005
 31
8.881784197001252e-16
  0
LINE
  5
FE
330
17
100
AcDbEntity
  8
0
100
AcDbLine
 10
-60.59324864223549
 20
-103.35152323251117
 30
0.0
 11
-74.85676186429227
 21
-90.87284519211002
 31
0.0
  0
LINE
  5
FF
330
17
100
AcDbEntity
  8
0
100
AcDbLine
 10
-57.086576138066306
 20
-103.60143137775941
 30
0.0
 11
-60.593248642235494
 21
-103.3515232325112
 31
0.0
  0
LINE
  5
100
330
17
100
AcDbEntity
  8
0
100
AcDbLine
 10
-48.32335196607613
 20
-98.31582916932332
 30
0.0
 11
-57.08657613806632
 21
-103.60143137775938
 31
0.0
  0
ARC
  5
101
330
17
100
AcDbEntity
  8
0
100
AcDbCircle
 10
-47.30479664730421
 20
-93.72752391982199
 30
0.0
 40
4.7
100
AcDbArc
 50
61.4604382342923
 51
257.48390264184815
  0
LINE
  5
102
330
17
100
AcDbEntity
  8
0
100
AcDbLine
 10
-45.05929900973419
 20
-89.59863298402973
 30
0.0
 11
-45.37861389733986
 21
-88.76720118294921
 31
0.0
  0
LINE
  5
103
330
17
100
AcDbEntity
  8
0
100
AcDbLine
 10
-35.17150068676808
 20
-77.43105351100981
 30
0.0
 11
-45.37861389733962
 21
-88.7672011829494
 31
0.0
  0
LINE
  5
104
330
17
100
AcDbEntity
  8
0
100
AcDbLine
 10
-35.171500686768084
 20
-77.43105351100982
 30
0.0
 11
-24.15297217805582
 21
-62.63653833062944
 31
0.0
  0
LINE
  5
105
330
17
100
AcDbEntity
  8
0
100
AcDbLine
 10
-24.15297217805582
 20
-62.63653833062944
 30
0.0
 11
-23.026581045696005
 21
-61.538657581550474
 31
0.0
  0
LINE
  5
106
330
17
100
AcDbEntity
  8
0
100
AcDbLine
 10
-23.026581045696002
 20
-61.538657581550495
 30
0.0
 11
-22.931455921439582
 21
-61.52188445560085
 31
0.0
  0
LINE
  5
107
330
17
100
AcDbEntity
  8
0
100
AcDbLine
 10
-22.93145592143959
 20
-61.52188445560083
 30
0.0
 11
-6.591847128247916
 21
-64.12757359193435
 31
0.0
  0
LINE
  5
108
330
17
100
AcDbEntity
  8
0
100
AcDbLine
 10
-3.4443553588535614
 20
-64.12757359193434
 30
0.0
 11
-6.591847128247917
 21
-64.12757359193434
 31
0.0
  0
ARC
  5
109
330
17
100
AcDbEntity
  8
0
100
AcDbCircle
 10
1.2112120798827084
 20
-64.77231526375229
 30
0.0
 40
4.7
100
AcDbArc
 50
7.884644415381778
 51
172.11535558461821
  0
LINE
  5
10A
330
17
100
AcDbEntity
  8
0
100
AcDbLine
 10
13.500285827880367
 20
-64.12757359193434
 30
0.0
 11
5.866779518618978
 21
-64.12757359193434
 31
0.0
  0
LINE
  5
10B
330
17
100
AcDbEntity
  8
0
100
AcDbLine
 10
13.500285827880354
 20
-64.12757359193434
 30
0.0
 11
15.787330959811985
 21
-55.357065399354
 31
0.0
  0
LINE
  5
10C
330
17
100
AcDbEntity
  8
0
100
AcDbLine
 10
16.387685896573803
 20
-54.03708935867882
 30
0.0
 11
15.787330959811987
 21
-55.357065399354
 31
0.0
  0
LINE
  5
10D
330
17
100
AcDbEntity
  8
0
100
AcDbLine
 10
16.387685896573807
 20
-54.03708935867881
 30
0.0
 11
54.833103990384664
 21
-54.03708935867881
 31
0.0
  0
LINE
  5
10E
330
17
100
AcDbEntity
  8
0
100
AcDbLine
 10
59.59359481840192
 20
-48.455248986160264
 30
0.0
 11
54.83310399038466
 21
-54.03708935867882
 31
0.0
  0
LINE
  5
10F
330
17
100
AcDbEntity
  8
0
100
AcDbLine
 10
59.593594818393285
 20
-48.45524898617039
 30
0.0
 11
59.55994305179939
 21
-44.856620590738984
 31
0.0
  0
ARC
  5
110
330
17
100
AcDbEntity
  8
0
100
AcDbCircle
 10
57.32263129957171
 20
-40.72328826399051
 30
0.0
 40
4.7
100
AcDbArc
 50
68.78271632690434
 51
298.4260290002771
  0
LINE
  5
111
330
17
100
AcDbEntity
  8
0
100
AcDbLine
 10
58.57092118385891
 20
-31.03919575372525
 30
-8.881784197001252e-16
 11
59.02358853902126
 21
-36.341879304584396
 31
-8.881784197001252e-16
  0
LINE
  5
112
330
17
100
AcDbEntity
  8
0
100
AcDbLine
 10
58.18942064490732
 20
-22.25
 30
0.0
 11
58.57092118385896
 21
-31.039195753725245
 31
0.0
  0
LINE
  5
113
330
17
100
AcDbEntity
  8
0
100
AcDbLine
 10
58.189420644907315
 20
-22.25
 30
0.0
 11
58.189420644907315
 21
-3.7499999999999996
 31
0.0
  0
LINE
  5
114
330
17
100
AcDbEntity
  8
0
100
AcDbLine
 10
58.189420644907315
 20
-3.7500000000000004
 30
0.0
 11
58.57092118385896
 21
5.039195753725243
 31
0.0
  0
LINE
  5
115
330
17
100
AcDbEntity
  8
0
100
AcDbLine
 10
59.53650626221769
 20
16.35035405487463
 30
0.0
 11
58.57092118385895
 21
5.039195753725243
 31
0.0
  0
LINE
  5
116
330
17
100
AcDbEntity
  8
0
100
AcDbLine
 10
59.53650626221771
 20
16.35035405487463
 30
0.0
 11
59.604843035081885
 21
23.65810268657218
 31
0.0
  0
LINE
  5
117
330
17
100
AcDbEntity
  8
0
100
AcDbLine
 10
59.73333276922822
 20
32.54654639059852
 30
0.0
 11
59.604843035081856
 21
23.658102686572178
 31
0.0
  0
LINE
  5
118
330
17
100
AcDbEntity
  8
0
100
AcDbLine
 10
59.733332769229065
 20
32.54654639059851
 30
0.0
 11
59.810162443224094
 21
36.35958553829386
 31
0.0
  0
ARC
  5
119
330
17
100
AcDbEntity
  8
0
100
AcDbCircle
 10
57.69608285984534
 20
40.55728342107926
 30
0.0
 40
4.7
100
AcDbArc
 50
60.96026439992834
 51
296.7311201828807
  0
LINE
  5
11A
330
17
100
AcDbEntity
  8
0
100
AcDbLine
 10
59.977538376107184
 20
44.66641480463447
 30
0.0
 11
60.00733339487036
 21
46.145134771058665
 31
0.0
  0
LINE
  5
11B
330
17
100
AcDbEntity
  8
0
100
AcDbLine
 10
60.007333394870365
 20
46.14513477105853
 30
0.0
 11
55.31629335101968
 21
51.12757359193435
 31
0.0
  0
LINE
  5
11C
330
17
100
AcDbEntity
  8
0
100
AcDbLine
 10
15.593621906174135
 20
51.127573591934286
 30
0.0
 11
55.31629335101968
 21
51.12757359193438
 31
0.0
  0
LINE
  5
11D
330
17
100
AcDbEntity
  8
0
100
AcDbLine
 10
15.593621906174132
 20
51.127573591934336
 30
0.0
 11
11.243297640548796
 21
64.12757359193435
 31
0.0
  0
LINE
  5
11E
330
17
100
AcDbEntity
  8
0
100
AcDbLine
 10
11.243297640548807
 20
64.12757359193435
 30
0.0
 11
5.807462666986272
 21
64.12757359193435
 31
0.0
  0
ARC
  5
11F
330
17
100
AcDbEntity
  8
0
100
AcDbCircle
 10
1.289178839324741
 20
65.42183448243992
 30
0.0
 40
4.7
100
AcDbArc
 50
195.98434254450257
 51
344.01565745549743
  0
LINE
  5
120
330
17
100
AcDbEntity
  8
0
100
AcDbLine
 10
-3.2291049883367897
 20
64.12757359193435
 30
0.0
 11
-6.689661891999379
 21
64.12757359193435
 31
0.0
  0
LINE
  5
121
330
17
100
AcDbEntity
  8
0
100
AcDbLine
 10
-11.0227320925685
 20
66.94757359193433
 30
0.0
 11
-6.68966189199938
 21
64.12757359193434
 31
0.0
  0
LINE
  5
122
330
17
100
AcDbEntity
  8
0
100
AcDbLine
 10
-11.022732092568495
 20
66.94757359193433
 30
0.0
 11
-28.523110467592247
 21
66.94757359193433
 31
0.0
  0
LINE
  5
123
330
17
100
AcDbEntity
  8
0
100
AcDbLine
 10
-28.523110467592236
 20
66.94757359193433
 30
0.0
 11
-30.07729811308973
 21
64.12757359193434
 31
0.0
  0
LINE
  5
124
330
17
100
AcDbEntity
  8
0
100
AcDbLine
 10
-66.3372886206083
 20
64.12757359193434
 30
0.0
 11
-30.077298113089736
 21
64.12757359193434
 31
0.0
  0
LINE
  5
125
330
17
100
AcDbEntity
  8
0
100
AcDbLine
 10
-66.3372886206083
 20
64.12757359193434
 30
0.0
 11
-75.79010432175018
 21
59.97472491550533
 31
0.0
  0
LINE
  5
126
330
17
100
AcDbEntity
  8
0
100
AcDbLine
 10
-80.79010432175018
 20
53.974724915505334
 30
0.0
 11
-75.79010432175018
 21
59.974724915505334
 31
0.0
  0
LINE
  5
127
330
17
100
AcDbEntity
  8
0
100
AcDbLine
 10
-81.67784227964341
 20
50.58784783460616
 30
0.0
 11
-80.79010432175022
 21
53.97472491550534
 31
0.0
  0
ARC
  5
128
330
17
100
AcDbEntity
  8
0
100
AcDbCircle
 10
-82.92845738940659
 20
46.05728916627042
 30
0.0
 40
4.7
100
AcDbArc
 50
256.05672283729234
 51
434.568368951713
  0
LINE
  5
129
330
17
100
AcDbEntity
  8
0
100
AcDbLine
 10
-84.96681045706308
 20
38.039853417035545
 30
0.0
 11
-84.0609749550053
 21
41.49577582488795
 31
0.0
  0
LINE
  5
12A
330
17
100
AcDbEntity
  8
0
100
AcDbLine
 10
-85.97518954183538
 20
32.677523919821994
 30
0.0
 11
-84.96681045706305
 21
38.03985341703553
 31
0.0
  0
LINE
  5
12B
330
17
100
AcDbEntity
  8
0
100
AcDbLine
 10
-88.13721160096173
 20
14.904487663010887
 30
0.0
 11
-85.97518954183536
 21
32.677523919822
 31
0.0
  0
LINE
  5
12C
330
17
100
AcDbEntity
  8
0
100
AcDbLine
 10
-88.48115091471115
 20
9.149999999999999
 30
0.0
 11
-88.13721160096173
 21
14.904487663010887
 31
0.0
  0
LINE
  5
12D
330
17
100
AcDbEntity
  8
0
100
AcDbLine
 10
-88.48115091471115
 20
9.149999999999999
 30
0.0
 11
-88.48115091471115
 21
-9.149999999999999
 31
0.0
  0
LINE
  5
12E
330
17
100
AcDbEntity
  8
0
100
AcDbLine
 10
-88.48115091471114
 20
-9.149999999999999
 30
0.0
 11
-88.13721160096172
 21
-14.904487663010887
 31
0.0
  0
LINE
  5
12F
330
17
100
AcDbEntity
  8
0
100
AcDbLine
 10
-88.13721160096172
 20
-14.904487663010887
 30
0.0
 11
-87.61844946143827
 21
-19.16900396407807
 31
0.0
  0
ARC
  5
130
330
17
100
AcDbEntity
  8
0
100
AcDbCircle
 10
-87.10620057139855
 20
-23.84100579141644
 30
0.0
 40
4.7
100
AcDbArc
 50
277.614425161403
 51
456.25704637695793
  0
LINE
  5
131
330
17
100
AcDbEntity
  8
0
100
AcDbLine
 10
-86.48342264873969
 20
-28.499562183588665
 30
0.0
 11
-85.97518954183536
 21
-32.677523919822
 31
0.0
  0
LINE
  5
132
330
17
100
AcDbEntity
  8
0
100
AcDbLine
 10
-77.43212743121427
 20
-38.989177858135946
 30
0.0
 11
-85.97518954183539
 21
-32.677523919821994
 31
0.0
  0
LINE
  5
133
330
17
100
AcDbEntity
  8
0
100
AcDbLine
 10
-77.43212743121425
 20
-38.98917785813594
 30
0.0
 11
-77.3637231456117
 21
-39.06160546047734
 31
0.0
  0
LINE
  5
134
330
17
100
AcDbEntity
  8
0
100
AcDbLine
 10
-79.19375807413738
 20
-41.29309340529548
 30
0.0
 11
-77.36372314561171
 21
-39.06160546047734
 31
0.0
  0
CIRCLE
  5
135
330
17
100
AcDbEntity
  8
0
100
AcDbCircle
 10
-47.30479664730421
 20
-93.72752391982199
 30
-3.75
 40
1.5
  0
CIRCLE
  5
136
330
17
100
AcDbEntity
  8
0
100
AcDbCircle
 10
-87.10620057139855
 20
-23.84100579141644
 30
-3.75
 40
1.5
  0
CIRCLE
  5
137
330
17
100
AcDbEntity
  8
0
100
AcDbCircle
 10
1.2112120798827084
 20
-64.77231526375229
 30
-3.75
 40
1.5
  0
CIRCLE
  5
138
330
17
100
AcDbEntity
  8
0
100
AcDbCircle
 10
57.32263129957171
 20
-40.72328826399051
 30
-3.75
 40
1.5
  0
CIRCLE
  5
139
330
17
100
AcDbEntity
  8
0
100
AcDbCircle
 10
-82.92845738940659
 20
46.05728916627042
 30
-3.75
 40
1.5
  0
CIRCLE
  5
13A
330
17
100
AcDbEntity
  8
0
100
AcDbCircle
 10
1.289178839324741
 20
65.42183448243992
 30
-3.75
 40
1.5
  0
CIRCLE
  5
13B
330
17
100
AcDbEntity
  8
0
100
AcDbCircle
 10
57.69608285984534
 20
40.55728342107926
 30
-3.75
 40
1.5
  0
LINE
  5
13C
330
17
100
AcDbEntity
  8
0
100
AcDbLine
 10
-45.80479664730421
 20
-93.72752391982199
 30
-3.75
 11
-45.80479664730421
 21
-93.72752391982199
 31
0.0
  0
LINE
  5
13D
330
17
100
AcDbEntity
  8
0
100
AcDbLine
 10
-85.60620057139855
 20
-23.84100579141644
 30
-3.75
 11
-85.60620057139855
 21
-23.84100579141644
 31
0.0
  0
LINE
  5
13E
330
17
100
AcDbEntity
  8
0
100
AcDbLine
 10
2.711212079882708
 20
-64.77231526375229
 30
-3.75
 11
2.711212079882708
 21
-64.77231526375229
 31
0.0
  0
LINE
  5
13F
330
17
100
AcDbEntity
  8
0
100
AcDbLine
 10
58.82263129957171
 20
-40.72328826399051
 30
-3.75
 11
58.82263129957171
 21
-40.72328826399051
 31
0.0
  0
LINE
  5
140
330
17
100
AcDbEntity
  8
0
100
AcDbLine
 10
-81.42845738940659
 20
46.05728916627042
 30
-3.75
 11
-81.42845738940659
 21
46.05728916627042
 31
0.0
  0
LINE
  5
141
330
17
100
AcDbEntity
  8
0
100
AcDbLine
 10
2.789178839324741
 20
65.42183448243992
 30
-3.75
 11
2.789178839324741
 21
65.42183448243992
 31
0.0
  0
LINE
  5
142
330
17
100
AcDbEntity
  8
0
100
AcDbLine
 10
59.19608285984534
 20
40.55728342107926
 30
-3.75
 11
59.19608285984534
 21
40.55728342107926
 31
0.0
  0
LINE
  5
143
330
17
100
AcDbEntity
  8
0
100
AcDbLine
 10
-79.19375807413738
 20
-41.293093405295494
 30
-2.0
 11
-87.84449656867571
 21
-48.55192488547371
 31
-2.0
  0
LINE
  5
144
330
17
100
AcDbEntity
  8
0
100
AcDbLine
 10
-87.84449656867571
 20
-48.55192488547371
 30
-2.0
 11
-87.84449656867571
 21
-48.55192488547371
 31
0.0
  0
LINE
  5
145
330
17
100
AcDbEntity
  8
0
100
AcDbLine
 10
-79.19375807413738
 20
-41.29309340529548
 30
-2.0
 11
-79.19375807413738
 21
-41.29309340529548
 31
0.0
  0
LINE
  5
146
330
17
100
AcDbEntity
  8
0
100
AcDbLine
 10
-83.36736121336706
 20
-57.15537548017076
 30
-2.0
 11
-87.84449656867571
 21
-48.5519248854737
 31
-2.0
  0
LINE
  5
147
330
17
100
AcDbEntity
  8
0
100
AcDbLine
 10
-83.36736121336708
 20
-57.15537548017077
 30
-2.0
 11
-83.36736121336708
 21
-57.15537548017077
 31
0.0
  0
LINE
  5
148
330
17
100
AcDbEntity
  8
0
100
AcDbLine
 10
-83.3673612133671
 20
-57.15537548017076
 30
-2.0
 11
-84.66042906858239
 21
-58.81042686131142
 31
-2.0
  0
LINE
  5
149
330
17
100
AcDbEntity
  8
0
100
AcDbLine
 10
-84.66042906858237
 20
-58.810426861311434
 30
-2.0
 11
-84.66042906858237
 21
-58.810426861311434
 31
0.0
  0
LINE
  5
14A
330
17
100
AcDbEntity
  8
0
100
AcDbLine
 10
-93.756869561391
 20
-76.23643461356042
 30
-2.0
 11
-84.66042906858236
 21
-58.810426861311434
 31
-2.0
  0
LINE
  5
14B
330
17
100
AcDbEntity
  8
0
100
AcDbLine
 10
-93.75686956139101
 20
-76.2364346135604
 30
-2.0
 11
-93.75686956139101
 21
-76.2364346135604
 31
0.0
  0
LINE
  5
14C
330
17
100
AcDbEntity
  8
0
100
AcDbLine
 10
-93.75686956139099
 20
-76.2364346135604
 30
-2.0
 11
-93.35260370031286
 21
-78.35342088692943
 31
-2.0
  0
LINE
  5
14D
330
17
100
AcDbEntity
  8
0
100
AcDbLine
 10
-93.35260370031288
 20
-78.35342088692943
 30
-2.0
 11
-93.35260370031288
 21
-78.35342088692943
 31
0.0
  0
LINE
  5
14E
330
17
100
AcDbEntity
  8
0
100
AcDbLine
 10
-93.35260370031286
 20
-78.3534208869294
 30
-2.0
 11
-79.16993450307766
 21
-89.96965122167387
 31
-2.0
  0
LINE
  5
14F
330
17
100
AcDbEntity
  8
0
100
AcDbLine
 10
-79.16993450307767
 20
-89.9696512216739
 30
-2.0
 11
-79.16993450307767
 21
-89.9696512216739
 31
0.0
  0
LINE
  5
150
330
17
100
AcDbEntity
  8
0
100
AcDbLine
 10
-79.16993450307766
 20
-89.96965122167387
 30
-2.0
 11
-75.04871450388808
 21
-90.78756291491837
 31
-2.0
  0
LINE
  5
151
330
17
100
AcDbEntity
  8
0
100
AcDbLine
 10
-75.04871450388809
 20
-90.7875629149184
 30
-2.0
 11
-75.04871450388809
 21
-90.7875629149184
 31
0.0
  0
LINE
  5
152
330
17
100
AcDbEntity
  8
0
100
AcDbLine
 10
-75.04871450388809
 20
-90.7875629149184
 30
-1.9999999999999991
 11
-74.85676186429228
 21
-90.87284519211005
 31
-1.9999999999999991
  0
LINE
  5
153
330
17
100
AcDbEntity
  8
0
100
AcDbLine
 10
-74.85676186429228
 20
-90.87284519211003
 30
-2.0
 11
-74.85676186429228
 21
-90.87284519211003
 31
0.0
  0
LINE
  5
154
330
17
100
AcDbEntity
  8
0
100
AcDbLine
 10
-60.59324864223549
 20
-103.35152323251117
 30
-2.0
 11
-74.85676186429227
 21
-90.87284519211002
 31
-2.0
  0
LINE
  5
155
330
17
100
AcDbEntity
  8
0
100
AcDbLine
 10
-60.593248642235494
 20
-103.35152323251117
 30
-2.0
 11
-60.593248642235494
 21
-103.35152323251117
 31
0.0
  0
LINE
  5
156
330
17
100
AcDbEntity
  8
0
100
AcDbLine
 10
-57.086576138066306
 20
-103.60143137775941
 30
-1.9999999999999996
 11
-60.593248642235494
 21
-103.3515232325112
 31
-1.9999999999999996
  0
LINE
  5
157
330
17
100
AcDbEntity
  8
0
100
AcDbLine
 10
-57.086576138066306
 20
-103.60143137775938
 30
-1.9999999999999991
 11
-57.086576138066306
 21
-103.60143137775938
 31
8.881784197001252e-16
  0
LINE
  5
158
330
17
100
AcDbEntity
  8
0
100
AcDbLine
 10
-48.32335196607613
 20
-98.31582916932332
 30
-2.0
 11
-57.08657613806632
 21
-103.60143137775938
 31
-2.0
  0
LINE
  5
159
330
17
100
AcDbEntity
  8
0
100
AcDbLine
 10
-48.323351966076125
 20
-98.31582916932332
 30
-1.9999999999999973
 11
-48.323351966076125
 21
-98.31582916932332
 31
2.6645352591003757e-15
  0
ARC
  5
15A
330
17
100
AcDbEntity
  8
0
100
AcDbCircle
 10
-47.30479664730421
 20
-93.72752391982199
 30
-2.0
 40
4.7
100
AcDbArc
 50
61.4604382342923
 51
257.48390264184815
  0
LINE
  5
15B
330
17
100
AcDbEntity
  8
0
100
AcDbLine
 10
-45.05929900973418
 20
-89.59863298402973
 30
-2.0
 11
-45.05929900973418
 21
-89.59863298402973
 31
0.0
  0
LINE
  5
15C
330
17
100
AcDbEntity
  8
0
100
AcDbLine
 10
-45.05929900973419
 20
-89.59863298402973
 30
-2.0
 11
-45.37861389733986
 21
-88.76720118294921
 31
-2.0
  0
LINE
  5
15D
330
17
100
AcDbEntity
  8
0
100
AcDbLine
 10
-45.37861389733985
 20
-88.7672011829492
 30
-2.0
 11
-45.37861389733985
 21
-88.7672011829492
 31
0.0
  0
LINE
  5
15E
330
17
100
AcDbEntity
  8
0
100
AcDbLine
 10
-35.17150068676808
 20
-77.43105351100981
 30
-2.0
 11
-45.37861389733962
 21
-88.7672011829494
 31
-2.0
  0
LINE
  5
15F
330
17
100
AcDbEntity
  8
0
100
AcDbLine
 10
-35.17150068676808
 20
-77.43105351100981
 30
-2.0
 11
-35.17150068676808
 21
-77.43105351100981
 31
0.0
  0
LINE
  5
160
330
17
100
AcDbEntity
  8
0
100
AcDbLine
 10
-35.171500686768084
 20
-77.43105351100982
 30
-2.0
 11
-24.15297217805582
 21
-62.63653833062944
 31
-2.0
  0
LINE
  5
161
330
17
100
AcDbEntity
  8
0
100
AcDbLine
 10
-24.15297217805582
 20
-62.63653833062944
 30
-2.0
 11
-24.15297217805582
 21
-62.63653833062944
 31
0.0
  0
LINE
  5
162
330
17
100
AcDbEntity
  8
0
100
AcDbLine
 10
-24.15297217805582
 20
-62.63653833062944
 30
-2.0
 11
-23.026581045696005
 21
-61.538657581550474
 31
-2.0
  0
LINE
  5
163
330
17
100
AcDbEntity
  8
0
100
AcDbLine
 10
-23.026581045696005
 20
-61.538657581550474
 30
-2.0
 11
-23.026581045696005
 21
-61.538657581550474
 31
0.0
  0
LINE
  5
164
330
17
100
AcDbEntity
  8
0
100
AcDbLine
 10
-23.026581045696002
 20
-61.538657581550495
 30
-2.0
 11
-22.931455921439582
 21
-61.52188445560085
 31
-2.0
  0
LINE
  5
165
330
17
100
AcDbEntity
  8
0
100
AcDbLine
 10
-22.931455921439586
 20
-61.521884455600826
 30
-2.0
 11
-22.931455921439586
 21
-61.521884455600826
 31
0.0
  0
LINE
  5
166
330
17
100
AcDbEntity
  8
0
100
AcDbLine
 10
-22.93145592143959
 20
-61.52188445560083
 30
-2.0
 11
-6.591847128247916
 21
-64.12757359193435
 31
-2.0
  0
LINE
  5
167
330
17
100
AcDbEntity
  8
0
100
AcDbLine
 10
-6.591847128247915
 20
-64.12757359193434
 30
-2.0
 11
-6.591847128247915
 21
-64.12757359193434
 31
0.0
  0
LINE
  5
168
330
17
100
AcDbEntity
  8
0
100
AcDbLine
 10
-3.4443553588535614
 20
-64.12757359193434
 30
-2.0
 11
-6.591847128247917
 21
-64.12757359193434
 31
-2.0
  0
LINE
  5
169
330
17
100
AcDbEntity
  8
0
100
AcDbLine
 10
-3.444355358853562
 20
-64.12757359193434
 30
-2.0
 11
-3.444355358853562
 21
-64.12757359193434
 31
0.0
  0
ARC
  5
16A
330
17
100
AcDbEntity
  8
0
100
AcDbCircle
 10
1.2112120798827084
 20
-64.77231526375229
 30
-2.0
 40
4.7
100
AcDbArc
 50
7.884644415381778
 51
172.11535558461821
  0
LINE
  5
16B
330
17
100
AcDbEntity
  8
0
100
AcDbLine
 10
5.866779518618978
 20
-64.12757359193434
 30
-2.0
 11
5.866779518618978
 21
-64.12757359193434
 31
0.0
  0
LINE
  5
16C
330
17
100
AcDbEntity
  8
0
100
AcDbLine
 10
13.500285827880367
 20
-64.12757359193434
 30
-2.0
 11
5.866779518618978
 21
-64.12757359193434
 31
-2.0
  0
LINE
  5
16D
330
17
100
AcDbEntity
  8
0
100
AcDbLine
 10
13.500285827880358
 20
-64.12757359193434
 30
-2.0
 11
13.500285827880358
 21
-64.12757359193434
 31
0.0
  0
LINE
  5
16E
330
17
100
AcDbEntity
  8
0
100
AcDbLine
 10
13.500285827880354
 20
-64.12757359193434
 30
-2.0
 11
15.787330959811985
 21
-55.357065399354
 31
-2.0
  0
LINE
  5
16F
330
17
100
AcDbEntity
  8
0
100
AcDbLine
 10
15.787330959811994
 20
-55.357065399354
 30
-2.0
 11
15.787330959811994
 21
-55.357065399354
 31
0.0
  0
LINE
  5
170
330
17
100
AcDbEntity
  8
0
100
AcDbLine
 10
16.387685896573803
 20
-54.03708935867882
 30
-2.0
 11
15.787330959811987
 21
-55.357065399354
 31
-2.0
  0
LINE
  5
171
330
17
100
AcDbEntity
  8
0
100
AcDbLine
 10
16.387685896573807
 20
-54.03708935867882
 30
-2.0
 11
16.387685896573807
 21
-54.03708935867882
 31
0.0
  0
LINE
  5
172
330
17
100
AcDbEntity
  8
0
100
AcDbLine
 10
16.387685896573807
 20
-54.03708935867881
 30
-2.0
 11
54.833103990384664
 21
-54.03708935867881
 31
-2.0
  0
LINE
  5
173
330
17
100
AcDbEntity
  8
0
100
AcDbLine
 10
54.833103990384664
 20
-54.03708935867882
 30
-2.0
 11
54.833103990384664
 21
-54.03708935867882
 31
0.0
  0
LINE
  5
174
330
17
100
AcDbEntity
  8
0
100
AcDbLine
 10
59.59359481840192
 20
-48.455248986160264
 30
-2.0
 11
54.83310399038466
 21
-54.03708935867882
 31
-2.0
  0
LINE
  5
175
330
17
100
AcDbEntity
  8
0
100
AcDbLine
 10
59.59359481839328
 20
-48.45524898617039
 30
-2.0
 11
59.59359481839328
 21
-48.45524898617039
 31
0.0
  0
LINE
  5
176
330
17
100
AcDbEntity
  8
0
100
AcDbLine
 10
59.593594818393285
 20
-48.45524898617039
 30
-2.0
 11
59.55994305179939
 21
-44.856620590738984
 31
-2.0
  0
LINE
  5
177
330
17
100
AcDbEntity
  8
0
100
AcDbLine
 10
59.55994305179938
 20
-44.856620590738984
 30
-2.0
 11
59.55994305179938
 21
-44.856620590738984
 31
0.0
  0
ARC
  5
178
330
17
100
AcDbEntity
  8
0
100
AcDbCircle
 10
57.32263129957171
 20
-40.72328826399051
 30
-2.0
 40
4.7
100
AcDbArc
 50
68.78271632690434
 51
298.4260290002771
  0
LINE
  5
179
330
17
100
AcDbEntity
  8
0
100
AcDbLine
 10
59.023588539021254
 20
-36.341879304584396
 30
-2.0000000000000027
 11
59.023588539021254
 21
-36.341879304584396
 31
-2.6645352591003757e-15
  0
LINE
  5
17A
330
17
100
AcDbEntity
  8
0
100
AcDbLine
 10
58.57092118385891
 20
-31.03919575372525
 30
-2.000000000000001
 11
59.02358853902126
 21
-36.341879304584396
 31
-2.000000000000001
  0
LINE
  5
17B
330
17
100
AcDbEntity
  8
0
100
AcDbLine
 10
58.57092118385895
 20
-31.039195753725245
 30
-2.0
 11
58.57092118385895
 21
-31.039195753725245
 31
0.0
  0
LINE
  5
17C
330
17
100
AcDbEntity
  8
0
100
AcDbLine
 10
58.18942064490732
 20
-22.25
 30
-2.0
 11
58.57092118385896
 21
-31.039195753725245
 31
-2.0
  0
LINE
  5
17D
330
17
100
AcDbEntity
  8
0
100
AcDbLine
 10
58.18942064490731
 20
-22.25
 30
-2.0
 11
58.18942064490731
 21
-22.25
 31
0.0
  0
LINE
  5
17E
330
17
100
AcDbEntity
  8
0
100
AcDbLine
 10
58.189420644907315
 20
-22.25
 30
-2.0000000000000004
 11
58.189420644907315
 21
-3.7499999999999996
 31
-2.0000000000000004
  0
LINE
  5
17F
330
17
100
AcDbEntity
  8
0
100
AcDbLine
 10
58.18942064490731
 20
-3.75
 30
-2.0
 11
58.18942064490731
 21
-3.75
 31
0.0
  0
LINE
  5
180
330
17
100
AcDbEntity
  8
0
100
AcDbLine
 10
58.189420644907315
 20
-3.7500000000000004
 30
-2.0
 11
58.57092118385896
 21
5.039195753725243
 31
-2.0
  0
LINE
  5
181
330
17
100
AcDbEntity
  8
0
100
AcDbLine
 10
58.57092118385895
 20
5.039195753725243
 30
-2.0
 11
58.57092118385895
 21
5.039195753725243
 31
0.0
  0
LINE
  5
182
330
17
100
AcDbEntity
  8
0
100
AcDbLine
 10
59.53650626221769
 20
16.35035405487463
 30
-2.0
 11
58.57092118385895
 21
5.039195753725243
 31
-2.0
  0
LINE
  5
183
330
17
100
AcDbEntity
  8
0
100
AcDbLine
 10
59.53650626221769
 20
16.35035405487463
 30
-1.9999999999999996
 11
59.53650626221769
 21
16.35035405487463
 31
0.0
  0
LINE
  5
184
330
17
100
AcDbEntity
  8
0
100
AcDbLine
 10
59.53650626221771
 20
16.35035405487463
 30
-2.0
 11
59.604843035081885
 21
23.65810268657218
 31
-2.0
  0
LINE
  5
185
330
17
100
AcDbEntity
  8
0
100
AcDbLine
 10
59.604843035081856
 20
23.658102686572178
 30
-2.0
 11
59.604843035081856
 21
23.658102686572178
 31
0.0
  0
LINE
  5
186
330
17
100
AcDbEntity
  8
0
100
AcDbLine
 10
59.73333276922822
 20
32.54654639059852
 30
-2.0
 11
59.604843035081856
 21
23.658102686572178
 31
-2.0
  0
LINE
  5
187
330
17
100
AcDbEntity
  8
0
100
AcDbLine
 10
59.73333276922822
 20
32.54654639059852
 30
-2.0
 11
59.73333276922822
 21
32.54654639059852
 31
0.0
  0
LINE
  5
188
330
17
100
AcDbEntity
  8
0
100
AcDbLine
 10
59.733332769229065
 20
32.54654639059851
 30
-2.0
 11
59.810162443224094
 21
36.35958553829386
 31
-2.0
  0
LINE
  5
189
330
17
100
AcDbEntity
  8
0
100
AcDbLine
 10
59.8101624432241
 20
36.35958553829386
 30
-2.0
 11
59.8101624432241
 21
36.35958553829386
 31
0.0
  0
ARC
  5
18A
330
17
100
AcDbEntity
  8
0
100
AcDbCircle
 10
57.69608285984534
 20
40.55728342107926
 30
-2.0
 40
4.7
100
AcDbArc
 50
60.96026439992834
 51
296.7311201828807
  0
LINE
  5
18B
330
17
100
AcDbEntity
  8
0
100
AcDbLine
 10
59.97753837610719
 20
44.66641480463447
 30
-2.0
 11
59.97753837610719
 21
44.66641480463447
 31
0.0
  0
LINE
  5
18C
330
17
100
AcDbEntity
  8
0
100
AcDbLine
 10
59.977538376107184
 20
44.66641480463447
 30
-2.0
 11
60.00733339487036
 21
46.145134771058665
 31
-2.0
  0
LINE
  5
18D
330
17
100
AcDbEntity
  8
0
100
AcDbLine
 10
60.007333394870365
 20
46.14513477105853
 30
-2.0
 11
60.007333394870365
 21
46.14513477105853
 31
0.0
  0
LINE
  5
18E
330
17
100
AcDbEntity
  8
0
100
AcDbLine
 10
60.007333394870365
 20
46.14513477105853
 30
-2.0
 11
55.31629335101968
 21
51.12757359193435
 31
-2.0
  0
LINE
  5
18F
330
17
100
AcDbEntity
  8
0
100
AcDbLine
 10
55.31629335101968
 20
51.127573591934336
 30
-2.0
 11
55.31629335101968
 21
51.127573591934336
 31
0.0
  0
LINE
  5
190
330
17
100
AcDbEntity
  8
0
100
AcDbLine
 10
15.593621906174135
 20
51.127573591934286
 30
-2.0
 11
55.31629335101968
 21
51.12757359193438
 31
-2.0
  0
LINE
  5
191
330
17
100
AcDbEntity
  8
0
100
AcDbLine
 10
15.593621906174135
 20
51.127573591934336
 30
-2.0
 11
15.593621906174135
 21
51.127573591934336
 31
0.0
  0
LINE
  5
192
330
17
100
AcDbEntity
  8
0
100
AcDbLine
 10
15.593621906174132
 20
51.127573591934336
 30
-2.0
 11
11.243297640548796
 21
64.12757359193435
 31
-2.0
  0
LINE
  5
193
330
17
100
AcDbEntity
  8
0
100
AcDbLine
 10
11.243297640548798
 20
64.12757359193435
 30
-2.0
 11
11.243297640548798
 21
64.12757359193435
 31
0.0
  0
LINE
  5
194
330
17
100
AcDbEntity
  8
0
100
AcDbLine
 10
11.243297640548807
 20
64.12757359193435
 30
-2.0
 11
5.807462666986272
 21
64.12757359193435
 31
-2.0
  0
LINE
  5
195
330
17
100
AcDbEntity
  8
0
100
AcDbLine
 10
5.807462666986272
 20
64.12757359193435
 30
-2.0
 11
5.807462666986272
 21
64.12757359193435
 31
0.0
  0
ARC
  5
196
330
17
100
AcDbEntity
  8
0
100
AcDbCircle
 10
1.289178839324741
 20
65.42183448243992
 30
-2.0
 40
4.7
100
AcDbArc
 50
195.98434254450257
 51
344.01565745549743
  0
LINE
  5
197
330
17
100
AcDbEntity
  8
0
100
AcDbLine
 10
-3.2291049883367897
 20
64.12757359193435
 30
-2.0
 11
-3.2291049883367897
 21
64.12757359193435
 31
0.0
  0
LINE
  5
198
330
17
100
AcDbEntity
  8
0
100
AcDbLine
 10
-3.2291049883367897
 20
64.12757359193435
 30
-2.0
 11
-6.689661891999379
 21
64.12757359193435
 31
-2.0
  0
LINE
  5
199
330
17
100
AcDbEntity
  8
0
100
AcDbLine
 10
-6.689661891999378
 20
64.12757359193434
 30
-2.0
 11
-6.689661891999378
 21
64.12757359193434
 31
0.0
  0
LINE
  5
19A
330
17
100
AcDbEntity
  8
0
100
AcDbLine
 10
-11.0227320925685
 20
66.94757359193433
 30
-2.0
 11
-6.68966189199938
 21
64.12757359193434
 31
-2.0
  0
LINE
  5
19B
330
17
100
AcDbEntity
  8
0
100
AcDbLine
 10
-11.022732092568495
 20
66.94757359193433
 30
-2.0
 11
-11.022732092568495
 21
66.94757359193433
 31
0.0
  0
LINE
  5
19C
330
17
100
AcDbEntity
  8
0
100
AcDbLine
 10
-11.022732092568495
 20
66.94757359193433
 30
-2.0
 11
-28.523110467592247
 21
66.94757359193433
 31
-2.0
  0
LINE
  5
19D
330
17
100
AcDbEntity
  8
0
100
AcDbLine
 10
-28.52311046759224
 20
66.94757359193433
 30
-2.0
 11
-28.52311046759224
 21
66.94757359193433
 31
0.0
  0
LINE
  5
19E
330
17
100
AcDbEntity
  8
0
100
AcDbLine
 10
-28.523110467592236
 20
66.94757359193433
 30
-2.0
 11
-30.07729811308973
 21
64.12757359193434
 31
-2.0
  0
LINE
  5
19F
330
17
100
AcDbEntity
  8
0
100
AcDbLine
 10
-30.077298113089736
 20
64.12757359193434
 30
-2.0
 11
-30.077298113089736
 21
64.12757359193434
 31
0.0
  0
LINE
  5
1A0
330
17
100
AcDbEntity
  8
0
100
AcDbLine
 10
-66.3372886206083
 20
64.12757359193434
 30
-2.0
 11
-30.077298113089736
 21
64.12757359193434
 31
-2.0
  0
LINE
  5
1A1
330
17
100
AcDbEntity
  8
0
100
AcDbLine
 10
-66.3372886206083
 20
64.12757359193434
 30
-2.0
 11
-66.3372886206083
 21
64.12757359193434
 31
0.0
  0
LINE
  5
1A2
330
17
100
AcDbEntity
  8
0
100
AcDbLine
 10
-66.3372886206083
 20
64.12757359193434
 30
-2.0
 11
-75.79010432175018
 21
59.97472491550533
 31
-2.0
  0
LINE
  5
1A3
330
17
100
AcDbEntity
  8
0
100
AcDbLine
 10
-75.79010432175018
 20
59.97472491550533
 30
-2.0
 11
-75.79010432175018
 21
59.97472491550533
 31
0.0
  0
LINE
  5
1A4
330
17
100
AcDbEntity
  8
0
100
AcDbLine
 10
-80.79010432175018
 20
53.974724915505334
 30
-2.0
 11
-75.79010432175018
 21
59.974724915505334
 31
-2.0
  0
LINE
  5
1A5
330
17
100
AcDbEntity
  8
0
100
AcDbLine
 10
-80.79010432175018
 20
53.97472491550533
 30
-2.0
 11
-80.79010432175018
 21
53.97472491550533
 31
0.0
  0
LINE
  5
1A6
330
17
100
AcDbEntity
  8
0
100
AcDbLine
 10
-81.67784227964341
 20
50.58784783460616
 30
-2.0
 11
-80.79010432175022
 21
53.97472491550534
 31
-2.0
  0
LINE
  5
1A7
330
17
100
AcDbEntity
  8
0
100
AcDbLine
 10
-81.67784227964339
 20
50.58784783460615
 30
-2.0
 11
-81.67784227964339
 21
50.58784783460615
 31
0.0
  0
ARC
  5
1A8
330
17
100
AcDbEntity
  8
0
100
AcDbCircle
 10
-82.92845738940659
 20
46.05728916627042
 30
-2.0
 40
4.7
100
AcDbArc
 50
256.05672283729234
 51
434.568368951713
  0
LINE
  5
1A9
330
17
100
AcDbEntity
  8
0
100
AcDbLine
 10
-84.06097495500529
 20
41.49577582488794
 30
-2.0
 11
-84.06097495500529
 21
41.49577582488794
 31
0.0
  0
LINE
  5
1AA
330
17
100
AcDbEntity
  8
0
100
AcDbLine
 10
-84.96681045706308
 20
38.039853417035545
 30
-2.0
 11
-84.0609749550053
 21
41.49577582488795
 31
-2.0
  0
LINE
  5
1AB
330
17
100
AcDbEntity
  8
0
100
AcDbLine
 10
-84.96681045706303
 20
38.03985341703553
 30
-2.0
 11
-84.96681045706303
 21
38.03985341703553
 31
0.0
  0
LINE
  5
1AC
330
17
100
AcDbEntity
  8
0
100
AcDbLine
 10
-85.97518954183538
 20
32.677523919821994
 30
-2.0
 11
-84.96681045706305
 21
38.03985341703553
 31
-2.0
  0
LINE
  5
1AD
330
17
100
AcDbEntity
  8
0
100
AcDbLine
 10
-85.97518954183536
 20
32.677523919821994
 30
-2.0
 11
-85.97518954183536
 21
32.677523919821994
 31
0.0
  0
LINE
  5
1AE
330
17
100
AcDbEntity
  8
0
100
AcDbLine
 10
-88.13721160096173
 20
14.904487663010887
 30
-2.0
 11
-85.97518954183536
 21
32.677523919822
 31
-2.0
  0
LINE
  5
1AF
330
17
100
AcDbEntity
  8
0
100
AcDbLine
 10
-88.13721160096172
 20
14.904487663010885
 30
-2.0
 11
-88.13721160096172
 21
14.904487663010885
 31
0.0
  0
LINE
  5
1B0
330
17
100
AcDbEntity
  8
0
100
AcDbLine
 10
-88.48115091471115
 20
9.149999999999999
 30
-2.0
 11
-88.13721160096173
 21
14.904487663010887
 31
-2.0
  0
LINE
  5
1B1
330
17
100
AcDbEntity
  8
0
100
AcDbLine
 10
-88.48115091471114
 20
9.149999999999999
 30
-2.0
 11
-88.48115091471114
 21
9.149999999999999
 31
0.0
  0
LINE
  5
1B2
330
17
100
AcDbEntity
  8
0
100
AcDbLine
 10
-88.48115091471115
 20
9.149999999999999
 30
-2.0
 11
-88.48115091471115
 21
-9.149999999999999
 31
-2.0
  0
LINE
  5
1B3
330
17
100
AcDbEntity
  8
0
100
AcDbLine
 10
-88.48115091471114
 20
-9.149999999999999
 30
-2.0
 11
-88.48115091471114
 21
-9.149999999999999
 31
0.0
  0
LINE
  5
1B4
330
17
100
AcDbEntity
  8
0
100
AcDbLine
 10
-88.48115091471114
 20
-9.149999999999999
 30
-2.0
 11
-88.13721160096172
 21
-14.904487663010887
 31
-2.0
  0
LINE
  5
1B5
330
17
100
AcDbEntity
  8
0
100
AcDbLine
 10
-88.13721160096172
 20
-14.904487663010885
 30
-2.0
 11
-88.13721160096172
 21
-14.904487663010885
 31
0.0
  0
LINE
  5
1B6
330
17
100
AcDbEntity
  8
0
100
AcDbLine
 10
-88.13721160096172
 20
-14.904487663010887
 30
-2.0
 11
-87.61844946143827
 21
-19.16900396407807
 31
-2.0
  0
LINE
  5
1B7
330
17
100
AcDbEntity
  8
0
100
AcDbLine
 10
-87.61844946143826
 20
-19.169003964078065
 30
-2.0
 11
-87.61844946143826
 21
-19.169003964078065
 31
0.0
  0
ARC
  5
1B8
330
17
100
AcDbEntity
  8
0
100
AcDbCircle
 10
-87.10620057139855
 20
-23.84100579141644
 30
-2.0
 40
4.7
100
AcDbArc
 50
277.614425161403
 51
456.25704637695793
  0
LINE
  5
1B9
330
17
100
AcDbEntity
  8
0
100
AcDbLine
 10
-86.48342264873968
 20
-28.499562183588665
 30
-2.0
 11
-86.48342264873968
 21
-28.499562183588665
 31
0.0
  0
LINE
  5
1BA
330
17
100
AcDbEntity
  8
0
100
AcDbLine
 10
-86.48342264873969
 20
-28.499562183588665
 30
-2.0
 11
-85.97518954183536
 21
-32.677523919822
 31
-2.0
  0
LINE
  5
1BB
330
17
100
AcDbEntity
  8
0
100
AcDbLine
 10
-85.97518954183536
 20
-32.677523919821994
 30
-2.0
 11
-85.97518954183536
 21
-32.677523919821994
 31
0.0
  0
LINE
  5
1BC
330
17
100
AcDbEntity
  8
0
100
AcDbLine
 10
-77.43212743121427
 20
-38.989177858135946
 30
-2.0
 11
-85.97518954183539
 21
-32.677523919821994
 31
-2.0
  0
LINE
  5
1BD
330
17
100
AcDbEntity
  8
0
100
AcDbLine
 10
-77.43212743121427
 20
-38.989177858135946
 30
-2.0
 11
-77.43212743121427
 21
-38.989177858135946
 31
0.0
  0
LINE
  5
1BE
330
17
100
AcDbEntity
  8
0
100
AcDbLine
 10
-77.43212743121425
 20
-38.98917785813594
 30
-2.0
 11
-77.3637231456117
 21
-39.06160546047734
 31
-2.0
  0
LINE
  5
1BF
330
17
100
AcDbEntity
  8
0
100
AcDbLine
 10
-77.36372314561171
 20
-39.061605460477345
 30
-2.0
 11
-77.36372314561171
 21
-39.061605460477345
 31
0.0
  0
LINE
  5
1C0
330
17
100
AcDbEntity
  8
0
100
AcDbLine
 10
-79.19375807413738
 20
-41.29309340529548
 30
-2.0000000000000004
 11
-77.36372314561171
 21
-39.06160546047734
 31
-2.0000000000000004
  0
ENDSEC
  0
SECTION
  2
OBJECTS
  0
DICTIONARY
  5
A
330
0
100
AcDbDictionary
280
0
281
1
  3
ACAD_COLOR
350
B
  3
ACAD_GROUP
350
C
  3
ACAD_LAYOUT
350
D
  3
ACAD_MATERIAL
350
E
  3
ACAD_MLEADERSTYLE
350
F
  3
ACAD_MLINESTYLE
350
10
  3
ACAD_PLOTSETTINGS
350
11
  3
ACAD_PLOTSTYLENAME
350
12
  3
ACAD_SCALELIST
350
14
  3
ACAD_TABLESTYLE
350
15
  3
ACAD_VISUALSTYLE
350
16
  3
EZDXF_META
350
2D
  0
DICTIONARY
  5
B
330
A
100
AcDbDictionary
280
0
281
1
  0
DICTIONARY
  5
C
330
A
100
AcDbDictionary
280
0
281
1
  0
DICTIONARY
  5
D
330
A
100
AcDbDictionary
280
0
281
1
  3
Model
350
1A
  3
Layout1
350
1E
  0
DICTIONARY
  5
E
330
A
100
AcDbDictionary
280
0
281
1
  3
ByBlock
350
1F
  3
ByLayer
350
20
  3
Global
350
21
  0
DICTIONARY
  5
F
330
A
100
AcDbDictionary
280
0
281
1
  3
Standard
350
2C
  0
DICTIONARY
  5
10
330
A
100
AcDbDictionary
280
0
281
1
  3
Standard
350
22
  0
DICTIONARY
  5
11
330
A
100
AcDbDictionary
280
0
281
1
  0
ACDBDICTIONARYWDFLT
  5
12
330
A
100
AcDbDictionary
280
0
281
1
  3
Normal
350
13
100
AcDbDictionaryWithDefault
340
13
  0
ACDBPLACEHOLDER
  5
13
330
12
  0
DICTIONARY
  5
14
330
A
100
AcDbDictionary
280
0
281
1
  0
DICTIONARY
  5
15
330
A
100
AcDbDictionary
280
0
281
1
  0
DICTIONARY
  5
16
330
A
100
AcDbDictionary
280
0
281
1
  0
LAYOUT
  5
1A
330
D
100
AcDbPlotSettings
  1

  2
Adobe PDF
  4
A3
  6

 40
7.5
 41
20.0
 42
7.5
 43
20.0
 44
420.0
 45
297.0
 46
0.0
 47
0.0
 48
0.0
 49
0.0
140
0.0
141
0.0
142
1.0
143
1.0
 70
1024
 72
1
 73
0
 74
5
  7

 75
16
 76
0
 77
2
 78
300
147
1.0
148
0.0
149
0.0
100
AcDbLayout
  1
Model
 70
1
 71
0
 10
0.0
 20
0.0
 11
420.0
 21
297.0
 12
0.0
 22
0.0
 32
0.0
 14
1e+20
 24
1e+20
 34
1e+20
 15
-1e+20
 25
-1e+20
 35
-1e+20
146
0.0
 13
0.0
 23
0.0
 33
0.0
 16
1.0
 26
0.0
 36
0.0
 17
0.0
 27
1.0
 37
0.0
 76
1
330
17
  0
LAYOUT
  5
1E
330
D
100
AcDbPlotSettings
  1

  2
Adobe PDF
  4
A3
  6

 40
7.5
 41
20.0
 42
7.5
 43
20.0
 44
420.0
 45
297.0
 46
0.0
 47
0.0
 48
0.0
 49
0.0
140
0.0
141
0.0
142
1.0
143
1.0
 70
0
 72
1
 73
0
 74
5
  7

 75
16
 76
0
 77
2
 78
300
147
1.0
148
0.0
149
0.0
100
AcDbLayout
  1
Layout1
 70
1
 71
1
 10
0.0
 20
0.0
 11
420.0
 21
297.0
 12
0.0
 22
0.0
 32
0.0
 14
1e+20
 24
1e+20
 34
1e+20
 15
-1e+20
 25
-1e+20
 35
-1e+20
146
0.0
 13
0.0
 23
0.0
 33
0.0
 16
1.0
 26
0.0
 36
0.0
 17
0.0
 27
1.0
 37
0.0
 76
1
330
1B
  0
MATERIAL
  5
1F
102
{ACAD_REACTORS
330
E
102
}
330
E
100
AcDbMaterial
  1
ByBlock
  2

 70
0
 40
1.0
 71
1
 41
1.0
 91
-1023410177
 42
1.0
 72
1
  3

 73
1
 74
1
 75
1
 44
0.5
 73
0
 45
1.0
 46
1.0
 77
1
  4

 78
1
 79
1
170
1
 48
1.0
171
1
  6

172
1
173
1
174
1
140
1.0
141
1.0
175
1
  7

176
1
177
1
178
1
143
1.0
179
1
  8

270
1
271
1
272
1
145
1.0
146
1.0
273
1
  9

274
1
275
1
276
1
 42
1.0
 72
1
  3

 73
1
 74
1
 75
1
 94
63
  0
MATERIAL
  5
20
102
{ACAD_REACTORS
330
E
102
}
330
E
100
AcDbMaterial
  1
ByLayer
  2

 70
0
 40
1.0
 71
1
 41
1.0
 91
-1023410177
 42
1.0
 72
1
  3

 73
1
 74
1
 75
1
 44
0.5
 73
0
 45
1.0
 46
1.0
 77
1
  4

 78
1
 79
1
170
1
 48
1.0
171
1
  6

172
1
173
1
174
1
140
1.0
141
1.0
175
1
  7

176
1
177
1
178
1
143
1.0
179
1
  8

270
1
271
1
272
1
145
1.0
146
1.0
273
1
  9

274
1
275
1
276
1
 42
1.0
 72
1
  3

 73
1
 74
1
 75
1
 94
63
  0
MATERIAL
  5
21
102
{ACAD_REACTORS
330
E
102
}
330
E
100
AcDbMaterial
  1
Global
  2

 70
0
 40
1.0
 71
1
 41
1.0
 91
-1023410177
 42
1.0
 72
1
  3

 73
1
 74
1
 75
1
 44
0.5
 73
0
 45
1.0
 46
1.0
 77
1
  4

 78
1
 79
1
170
1
 48
1.0
171
1
  6

172
1
173
1
174
1
140
1.0
141
1.0
175
1
  7

176
1
177
1
178
1
143
1.0
179
1
  8

270
1
271
1
272
1
145
1.0
146
1.0
273
1
  9

274
1
275
1
276
1
 42
1.0
 72
1
  3

 73
1
 74
1
 75
1
 94
63
  0
MLINESTYLE
  5
22
102
{ACAD_REACTORS
330
10
102
}
330
10
100
AcDbMlineStyle
  2
Standard
 70
0
  3

 62
256
 51
90.0
 52
90.0
 71
2
 49
0.5
 62
256
  6
BYLAYER
 49
-0.5
 62
256
  6
BYLAYER
  0
MLEADERSTYLE
  5
2C
102
{ACAD_REACTORS
330
F
102
}
330
F
100
AcDbMLeaderStyle
179
2
170
2
171
1
172
0
 90
2
 40
0.0
 41
0.0
173
1
 91
-1056964608
 92
-2
290
1
 42
2.0
291
1
 43
8.0
  3
Standard
 44
4.0
300

342
29
174
1
175
1
176
0
178
1
 93
-1056964608
 45
4.0
292
0
297
0
 46
4.0
 94
-1056964608
 47
1.0
 49
1.0
140
1.0
294
1
141
0.0
177
0
142
1.0
295
0
296
0
143
3.75
271
0
272
9
273
9
  0
DICTIONARY
  5
2D
330
A
100
AcDbDictionary
281
1
  3
CREATED_BY_EZDXF
350
2E
  3
WRITTEN_BY_EZDXF
350
1C4
  0
DICTIONARYVAR
  5
2E
330
2D
100
DictionaryVariables
280
0
  1
1.0.3 @ 2023-07-07T07:49:24.331131+00:00
  0
DICTIONARYVAR
  5
1C4
330
2D
100
DictionaryVariables
280
0
  1
1.0.3 @ 2023-07-07T07:49:24.375131+00:00
  0
ENDSEC
  0
EOF
